<?xml version="1.0" standalone="no"?>
<!DOCTYPE svg PUBLIC "-//W3C//DTD SVG 20010904//EN"
 "http://www.w3.org/TR/2001/REC-SVG-20010904/DTD/svg10.dtd">
<svg version="1.0" xmlns="http://www.w3.org/2000/svg"
 width="654.000000pt" height="382.000000pt" viewBox="0 0 654.000000 382.000000"
 preserveAspectRatio="xMidYMid meet">

<g transform="translate(0.000000,382.000000) scale(0.100000,-0.100000)"
fill="#000000" stroke="none">
<path d="M2353 3723 l-33 -4 0 -159 0 -158 -87 -32 c-49 -18 -260 -90 -471
-160 -211 -70 -388 -132 -393 -137 -5 -5 -1 -36 11 -78 11 -39 20 -73 20 -76
0 -6 -108 -66 -285 -159 -44 -23 -120 -64 -170 -90 -49 -27 -140 -75 -201
-107 -61 -32 -121 -65 -134 -74 l-24 -15 121 -230 c124 -236 335 -634 650
-1229 99 -187 238 -450 308 -583 70 -134 133 -246 139 -248 10 -4 67 25 371
186 133 70 475 254 680 365 99 53 225 120 279 147 l99 50 66 -28 c68 -29 798
-393 1211 -604 129 -66 243 -120 252 -120 13 0 36 38 84 138 37 75 289 582
560 1125 272 544 492 992 489 996 -2 5 -213 112 -467 240 -255 127 -469 235
-476 239 -10 7 -9 28 8 105 12 54 22 123 23 154 l2 56 -165 37 c-91 21 -241
52 -335 69 -93 18 -218 44 -276 57 l-106 25 -6 145 c-3 80 -7 148 -10 150 -6
6 -1687 12 -1734 7z m1698 -33 c19 -10 19 -29 19 -802 0 -738 -2 -792 -18
-805 -16 -12 -16 -13 1 -7 17 6 18 -7 15 -259 -3 -236 -5 -267 -20 -284 -24
-26 -26 -153 -3 -153 17 0 20 -16 5 -25 -5 -3 -10 -19 -10 -34 0 -34 -13 -46
-70 -66 -40 -14 -48 -14 -89 1 -25 9 -54 26 -65 38 -18 21 -21 21 -600 21
-537 0 -584 -1 -609 -17 -23 -16 -33 -16 -79 -7 -90 19 -118 40 -118 90 0 17
3 18 21 9 11 -7 32 -9 45 -6 17 5 34 -1 55 -16 l31 -23 626 -1 627 0 -610 7
c-335 3 -622 9 -637 14 -30 8 -59 36 -43 42 22 8 39 22 33 28 -3 4 -24 -3 -46
-14 -43 -22 -53 -20 -111 21 -19 13 -21 20 -12 35 10 17 10 17 11 -3 0 -12 10
-25 25 -32 56 -26 111 -6 118 42 2 17 3 33 0 36 -3 3 -42 5 -87 4 -67 0 -82 2
-83 15 -1 9 -5 40 -9 70 -5 43 -4 53 7 49 9 -3 15 -23 17 -54 4 -69 22 -82 22
-16 0 49 10 66 26 41 4 -7 21 -9 40 -6 34 6 34 6 36 -36 l1 -42 4 40 c3 28 12
46 30 62 38 31 20 41 -30 16 -43 -21 -43 -21 -82 -2 -53 26 -59 34 -46 56 10
17 10 17 11 -3 0 -31 50 -50 98 -38 31 8 37 14 43 44 4 19 5 37 2 40 -2 3 -45
4 -94 3 l-89 -2 0 65 c0 48 3 65 13 62 7 -3 13 -26 15 -56 4 -67 22 -68 22 -2
l0 50 50 0 50 0 0 -45 c0 -25 3 -45 8 -45 4 0 6 20 4 45 -3 33 0 45 9 45 8 0
21 5 29 10 12 8 12 12 3 18 -7 4 -14 23 -16 42 -3 27 -11 38 -40 53 -32 16
-38 17 -71 3 -33 -14 -36 -18 -36 -55 0 -30 -4 -41 -15 -41 -17 0 -20 25 -5
35 16 10 12 45 -5 45 -11 0 -15 12 -15 51 0 45 2 50 15 39 8 -7 15 -26 15 -42
0 -17 4 -27 10 -23 17 11 11 51 -11 71 -17 15 -20 28 -17 71 2 29 0 53 -4 53
-5 0 -8 300 -8 668 l1 667 29 -33 c17 -18 30 -27 30 -20 0 6 -11 23 -24 37
-19 20 -25 39 -28 86 -3 55 -1 60 22 72 32 17 1630 19 1661 3z m500 -400 c217
-44 400 -82 408 -85 8 -3 10 -12 7 -22 -4 -10 -29 -128 -56 -263 -46 -230
-113 -559 -245 -1200 -31 -151 -76 -374 -100 -495 -37 -188 -68 -336 -91 -434
-4 -18 -9 -22 -27 -17 -12 4 -132 29 -267 56 -455 92 -1066 219 -1320 274 -31
7 -55 17 -54 24 3 33 4 35 17 23 8 -6 17 -8 21 -4 4 4 10 3 14 -2 8 -12 83
-47 88 -42 2 1 1 13 -3 26 -4 15 -8 19 -13 10 -6 -9 -14 -6 -31 10 -12 11 -18
21 -11 21 6 0 14 -5 17 -11 4 -6 13 -8 19 -6 7 3 19 1 27 -3 8 -5 16 -5 20 2
4 7 13 7 25 0 11 -5 42 -12 69 -15 28 -3 57 -8 66 -12 10 -4 19 2 27 17 10 23
11 22 11 -6 1 -22 4 -26 14 -18 8 7 18 6 31 -4 10 -7 22 -11 26 -9 5 3 25 -1
46 -8 47 -15 93 -16 96 -2 2 6 -8 11 -22 13 -48 5 -150 35 -150 43 0 5 -8 9
-17 9 -9 0 -14 2 -11 5 2 3 49 -4 104 -14 54 -11 230 -45 389 -76 160 -31 320
-63 357 -71 l67 -15 -5 -47 c-4 -31 -1 -52 8 -63 12 -15 246 -69 297 -69 30 0
26 17 -6 25 -25 6 -263 55 -268 55 -10 0 -14 56 -6 88 7 35 6 39 -9 35 -9 -2
-95 12 -191 32 -233 49 -582 125 -594 130 -5 2 22 3 62 2 47 0 70 -5 66 -11
-4 -7 -1 -7 6 0 9 8 28 8 72 -1 51 -11 61 -11 68 2 6 12 13 13 28 4 11 -5 23
-8 26 -5 9 9 88 14 83 5 -3 -4 20 -4 52 1 31 5 77 6 102 2 25 -4 59 -8 75 -9
17 -2 38 -6 47 -10 12 -5 20 -2 24 9 3 9 13 16 21 16 9 0 13 -6 10 -14 -4 -9
3 -15 16 -18 22 -4 22 -4 19 151 -2 86 0 153 4 148 11 -11 34 13 27 29 -8 21
7 17 28 -7 19 -22 49 -20 49 2 0 8 -4 8 -13 1 -9 -8 -16 -6 -24 7 -18 29 -53
33 -62 9 -4 -12 -8 44 -8 125 -1 139 0 147 19 147 10 0 16 5 13 10 -10 15 7
13 241 -34 138 -28 223 -41 229 -35 5 6 3 9 -7 9 -14 0 -15 5 -6 36 8 30 7 40
-6 52 -15 15 -16 14 -17 -8 -2 -59 -10 -76 -34 -66 -11 4 -14 13 -9 33 4 16
11 32 15 38 13 14 11 25 -5 25 -20 0 -35 -22 -38 -58 -1 -18 -5 -32 -9 -32
-12 0 -213 41 -301 61 l-88 21 0 55 0 56 58 -6 57 -6 -48 14 c-27 7 -52 16
-55 20 -9 9 57 -2 298 -51 118 -24 218 -40 221 -36 4 4 28 111 53 237 77 386
176 869 182 887 3 10 4 18 1 18 -10 0 -276 54 -394 81 -73 16 -141 29 -150 28
-10 -1 2 -5 27 -11 78 -16 87 -24 84 -71 -10 -125 -15 -159 -30 -202 -13 -38
-13 -49 -3 -56 10 -6 6 -14 -14 -34 -25 -26 -69 -125 -66 -148 1 -7 -1 -19 -4
-27 -34 -79 -50 -160 -19 -100 13 27 25 36 54 42 21 4 47 4 60 -1 19 -7 18 -8
-14 -14 -52 -8 -87 -33 -81 -57 3 -11 14 -20 24 -20 23 0 24 -13 4 -30 -8 -7
-15 -22 -15 -34 0 -42 -27 -66 -74 -66 -35 0 -45 -4 -56 -25 -10 -20 -11 -28
-2 -37 17 -17 14 -39 -8 -68 -24 -31 -33 -23 -19 18 14 40 5 67 -10 30 -17
-45 -24 -32 -17 33 5 42 4 59 -3 54 -14 -8 -14 0 4 58 10 33 12 55 5 67 -5 9
-8 26 -6 36 2 11 7 38 11 62 4 23 11 42 16 42 5 0 9 24 9 53 0 28 7 65 15 81
23 43 18 74 -14 107 -16 16 -25 29 -20 29 6 0 6 8 -1 19 -5 11 -10 27 -10 36
0 13 4 14 20 5 20 -11 30 3 10 15 -6 4 -7 11 -4 17 4 6 -1 17 -11 24 -18 13
-18 16 -1 70 10 31 15 58 12 61 -3 3 -8 -6 -11 -20 -4 -15 -14 -32 -23 -39
-14 -11 -15 -10 -8 7 15 40 19 85 7 85 -23 0 17 30 41 31 20 1 21 2 3 6 -23 6
-45 23 -29 23 5 0 165 -32 354 -70 189 -39 353 -70 364 -68 12 2 -26 13 -84
25 -162 34 -642 134 -667 140 -21 5 -23 11 -23 69 0 61 1 64 23 60 12 -3 45
-7 72 -10 47 -5 46 -4 -22 15 -75 22 -100 49 -45 49 16 0 206 -36 423 -80z
m-2231 -10 l0 -68 -72 -26 c-111 -39 -643 -216 -652 -216 -4 0 -5 4 -2 8 2 4
-4 26 -14 47 -14 29 -18 33 -15 15 2 -14 6 -32 9 -40 9 -23 -15 -49 -50 -56
-30 -6 -33 -4 -44 31 -7 20 -10 47 -7 61 6 31 -1 31 -13 -1 -6 -16 -5 -36 2
-57 22 -68 0 -72 443 76 225 75 410 135 412 132 5 -5 -125 -52 -277 -100 -63
-20 -131 -43 -150 -51 -19 -8 -94 -33 -167 -55 -73 -23 -142 -49 -153 -58 -19
-16 -20 -21 -10 -72 30 -150 154 -586 210 -740 51 -141 125 -311 154 -355 21
-32 43 -32 136 0 41 14 83 23 94 20 12 -3 14 -2 6 2 -9 4 15 16 65 32 78 25
80 25 88 7 4 -11 3 -22 -2 -25 -6 -4 -6 -12 -1 -21 6 -8 10 -27 10 -42 0 -30
8 -26 -228 -104 -100 -33 -146 -44 -153 -37 -6 6 -13 29 -16 51 -5 36 -3 42
23 56 16 8 23 15 16 16 -7 0 -24 -12 -39 -26 -20 -20 -24 -31 -19 -57 4 -18
15 -40 25 -50 17 -18 24 -16 196 43 99 33 184 59 189 57 6 -2 -48 -23 -119
-48 -122 -41 -130 -46 -133 -71 -2 -16 1 -28 6 -28 5 0 8 10 8 23 -1 19 12 26
109 59 61 20 116 37 123 37 10 1 12 -27 9 -127 -2 -70 -7 -133 -11 -140 -4 -7
-17 -12 -29 -12 -12 0 -28 -4 -35 -8 -15 -10 -5 -42 14 -42 8 0 11 6 7 16 -4
12 -2 15 8 12 8 -3 13 -10 12 -16 -2 -6 4 -9 12 -6 26 10 16 -12 -10 -24 -14
-6 -25 -18 -25 -26 0 -17 18 -31 28 -21 3 3 0 10 -8 15 -8 6 -10 10 -5 10 21
0 38 -18 32 -35 -5 -11 -13 -14 -27 -10 -23 7 -25 -2 -5 -29 8 -11 31 -20 59
-23 41 -5 44 -7 33 -24 -7 -11 -17 -17 -23 -15 -20 8 -36 -11 -29 -33 3 -11
11 -21 17 -21 5 0 8 7 4 15 -3 9 0 15 8 15 8 0 16 -5 18 -12 3 -9 12 -9 38 0
18 7 45 11 59 11 l26 -2 -24 -4 c-14 -3 -41 -16 -60 -29 -24 -16 -42 -21 -59
-17 -22 5 -23 4 -13 -16 12 -21 31 -29 31 -12 0 8 57 25 74 22 5 -1 6 5 3 14
-4 8 -2 15 3 15 6 0 10 -4 10 -10 0 -13 12 -13 47 2 15 6 34 10 42 9 9 -2 12
3 7 15 -5 13 -4 14 7 6 21 -18 73 0 69 24 -2 17 -2 18 8 2 8 -13 19 -16 43
-12 28 4 29 3 9 -6 -15 -6 -21 -14 -16 -22 6 -9 3 -9 -9 1 -15 12 -17 11 -17
-8 0 -16 6 -21 25 -21 17 0 25 6 25 18 0 14 2 15 10 2 7 -12 10 -10 17 8 l9
23 18 -20 c11 -12 29 -21 40 -21 38 0 -2 -18 -139 -61 -71 -22 -148 -47 -170
-54 -22 -8 -70 -19 -108 -26 -55 -10 -70 -10 -80 0 -9 11 -9 14 1 18 6 3 12
14 12 26 0 19 -3 18 -33 -11 -34 -33 -56 -38 -116 -26 -19 4 -31 12 -31 23 0
11 3 12 8 4 4 -7 25 -15 47 -18 34 -5 45 -1 72 22 26 23 31 33 26 55 -7 35
-25 36 -109 2 -36 -14 -66 -24 -67 -22 -34 64 -55 128 -44 128 3 0 17 -25 31
-57 30 -64 44 -67 21 -3 -18 50 -14 59 21 52 19 -3 31 1 40 13 12 17 14 16 24
-11 6 -16 15 -38 20 -49 9 -18 10 -18 6 5 -2 14 -7 40 -11 58 -6 26 -4 32 9
32 9 0 16 8 16 20 0 27 -9 25 -46 -11 -30 -29 -35 -31 -83 -24 -67 9 -66 21 1
17 44 -2 58 2 80 22 22 20 25 29 19 53 -10 36 -41 36 -128 1 l-62 -25 -20 58
c-19 56 -16 74 7 46 6 -6 14 -25 17 -40 7 -27 22 -43 31 -34 3 3 -2 19 -10 36
-23 43 -20 58 12 69 15 5 35 13 44 17 13 5 19 -2 28 -34 13 -51 35 -68 25 -20
-4 19 -11 38 -16 44 -6 6 -2 16 12 25 l21 16 -23 40 c-28 48 -36 54 -74 54
-20 0 -43 -11 -65 -30 -19 -16 -40 -29 -46 -30 -12 0 -47 80 -38 89 8 9 34
-30 34 -51 0 -10 5 -18 10 -18 24 0 4 67 -22 76 -24 7 -48 60 -49 111 -1 29
-3 33 -7 15 -8 -24 -15 -4 -278 781 -85 252 -152 463 -149 468 4 5 2 9 -4 9
-5 0 -15 25 -22 55 -11 48 -10 58 3 71 16 17 869 305 881 297 4 -2 7 -35 7
-73z m-2 -180 c-3 -60 -6 -64 -45 -63 -6 0 -13 -8 -16 -17 -3 -13 2 -20 19
-24 27 -7 33 -40 8 -50 -12 -4 -14 -1 -9 14 4 11 4 20 1 20 -8 0 -50 -23 -56
-31 -3 -4 -11 -1 -18 7 -10 12 -10 14 2 14 19 0 31 19 19 31 -11 11 -43 1 -43
-13 0 -6 -7 -26 -17 -45 -10 -22 -13 -37 -6 -41 5 -4 13 -27 16 -51 3 -24 2
-40 -3 -35 -5 5 -10 25 -12 44 l-4 35 -8 -28 c-7 -22 -4 -33 13 -51 28 -30 29
-56 1 -31 -11 10 -20 24 -20 32 0 20 -20 16 -21 -4 0 -10 -6 -3 -13 15 -13 38
-26 33 -26 -10 0 -22 12 -41 45 -72 25 -24 45 -47 45 -50 0 -11 -71 41 -86 63
-9 12 -22 21 -30 21 -20 0 -17 -13 6 -28 11 -7 20 -16 20 -20 0 -9 -59 -32
-84 -32 -9 0 -14 -4 -11 -10 3 -5 22 -10 42 -10 l36 0 -29 -25 c-21 -18 -30
-21 -36 -12 -11 16 -5 -24 5 -41 5 -7 2 -15 -10 -19 -10 -4 -36 -20 -58 -37
-22 -17 -42 -32 -45 -34 -8 -5 24 -22 43 -22 10 0 28 -12 41 -27 l24 -27 36
32 c51 45 70 43 61 -5 l-7 -38 26 24 c14 14 26 20 26 15 -1 -17 -25 -41 -47
-48 -18 -6 -22 -4 -17 8 3 9 2 16 -3 16 -5 0 -14 -14 -20 -31 -10 -25 -9 -31
3 -36 16 -6 19 -23 3 -23 -10 0 -55 -48 -73 -78 -11 -18 12 -128 30 -143 8 -6
14 -21 14 -33 0 -12 5 -27 12 -34 9 -9 9 -12 0 -12 -7 0 -12 -7 -12 -16 0 -14
-3 -14 -16 -4 -8 8 -14 9 -12 4 2 -5 -5 -20 -14 -33 -16 -23 -18 -23 -24 -5
-11 34 -27 64 -35 64 -4 0 -9 -12 -11 -26 -2 -15 -12 -32 -23 -38 -11 -6 -23
-15 -27 -21 -11 -15 -35 14 -46 58 -7 26 -7 35 0 31 8 -5 8 2 3 22 -5 16 -7
46 -6 67 2 45 -14 42 -24 -4 -4 -17 -9 -29 -11 -26 -9 9 -56 155 -109 338 -66
229 -111 437 -98 450 9 9 718 249 736 249 5 0 7 -27 5 -60z m2437 -180 l30
-35 -32 29 c-18 17 -33 34 -33 40 0 5 1 7 3 5 1 -2 16 -20 32 -39z m-2505 10
c0 -5 -4 -10 -10 -10 -5 0 -10 5 -10 10 0 6 5 10 10 10 6 0 10 -4 10 -10z
m-53 -42 c-3 -7 -5 -2 -5 12 0 14 2 19 5 13 2 -7 2 -19 0 -25z m110 -21 c-4
-15 -57 -22 -57 -8 0 10 13 16 42 18 11 1 18 -3 15 -10z m-892 -46 c-6 -5 -48
-29 -95 -53 -412 -218 -588 -313 -603 -328 -18 -17 -18 -19 3 -69 34 -79 18
-70 -20 10 -32 69 -33 72 -15 86 11 7 25 11 32 9 7 -3 13 -1 13 4 0 6 6 10 14
10 7 0 19 6 25 14 7 8 37 24 69 37 31 12 60 27 63 32 3 5 9 8 13 7 13 -4 116
51 116 62 0 5 7 7 16 4 8 -3 13 -2 10 3 -6 9 36 31 58 31 8 0 17 7 20 16 4 9
13 14 21 10 8 -3 15 0 15 7 0 11 94 61 104 55 2 -2 15 7 28 19 23 22 26 23 53
23 8 0 23 9 32 20 11 13 21 16 27 10 6 -6 6 -13 1 -19z m3797 -97 c117 -59
220 -112 228 -119 31 -25 306 -163 348 -174 23 -7 42 -17 42 -22 0 -6 -7 -9
-15 -5 -8 3 -15 1 -15 -3 0 -5 5 -11 11 -13 13 -4 -36 -108 -51 -108 -13 0
-13 6 6 41 8 17 14 42 12 57 -3 25 -36 44 -400 227 -219 110 -403 206 -410
213 -35 35 50 2 244 -94z m-2980 70 c9 -3 16 -15 15 -25 -1 -22 -17 -26 -17
-5 0 7 -10 21 -22 30 -13 9 -16 14 -8 11 8 -3 23 -8 32 -11z m-792 -3 c0 -5 2
-16 6 -24 3 -9 -7 -20 -30 -31 -37 -17 -40 -23 -30 -50 9 -23 26 -20 19 4 -4
11 -2 20 4 20 6 0 11 -5 11 -11 0 -7 10 -9 26 -5 44 11 23 -16 -40 -51 -68
-38 -76 -40 -76 -13 0 19 -36 47 -48 36 -3 -3 4 -16 16 -29 12 -13 22 -27 22
-33 0 -16 -517 -287 -531 -279 -13 8 -49 81 -49 99 0 9 113 74 288 167 158 84
310 165 337 180 52 30 75 35 75 20z m3938 -205 c205 -103 375 -193 378 -201 9
-21 -3 -59 -25 -86 l-20 -24 -328 163 c-353 176 -473 240 -473 254 0 5 5 6 10
3 6 -3 10 -1 10 4 0 6 -4 11 -10 11 -5 0 -10 5 -10 11 0 6 6 9 14 6 17 -7 28
47 12 63 -25 25 92 -29 442 -204z m-3220 179 c15 -14 22 -25 17 -25 -12 1 -55
35 -55 44 0 11 11 6 38 -19z m162 15 c0 -5 -2 -10 -4 -10 -3 0 -8 5 -11 10 -3
6 -1 10 4 10 6 0 11 -4 11 -10z m-206 -91 c-5 -9 -34 -13 -34 -5 0 2 3 12 6
20 5 13 9 14 20 5 8 -6 11 -15 8 -20z m163 -46 c7 -15 11 -29 8 -31 -3 -3 -5
0 -5 6 0 6 -6 9 -14 6 -10 -4 -14 2 -12 20 1 33 8 33 23 -1z m-177 -5 c0 -13
-68 -63 -76 -56 -2 2 6 18 16 36 19 32 60 45 60 20z m-607 -15 c2 -5 7 -20 11
-36 6 -26 5 -27 -19 -21 -33 8 -32 -1 3 -21 26 -15 26 -15 2 -9 -26 7 -28 7
-72 0 -22 -3 -98 -51 -98 -61 0 -2 -3 -12 -6 -22 -5 -17 -5 -17 6 0 6 9 18 17
27 17 13 0 14 -3 5 -12 -7 -7 -12 -33 -12 -59 0 -26 -4 -49 -9 -51 -14 -5 39
-80 60 -85 10 -3 19 -12 19 -19 0 -9 17 -1 46 21 25 19 54 35 65 35 16 0 19
-7 17 -46 -1 -36 -7 -49 -27 -65 -20 -16 -27 -32 -31 -72 -4 -37 -9 -52 -20
-52 -8 0 -15 5 -15 12 0 6 -3 15 -7 19 -5 4 -8 0 -8 -9 0 -10 -6 -17 -14 -17
-25 0 -29 -34 -6 -52 12 -10 28 -18 35 -18 14 0 27 -48 15 -55 -4 -3 -13 2
-20 10 -7 8 -16 12 -21 9 -5 -3 -12 2 -15 10 -5 14 -9 13 -30 -1 -33 -21 -40
-11 -18 23 12 17 19 47 19 82 1 46 -2 55 -19 62 -12 4 -25 5 -30 2 -5 -3 -6 0
-2 7 4 6 0 13 -11 17 -10 3 -26 10 -36 15 -13 7 -18 6 -16 -3 4 -22 -13 -52
-40 -75 -14 -12 -26 -30 -27 -40 -3 -45 -5 -53 -14 -53 -5 0 -7 7 -3 15 3 9
-2 22 -12 29 -10 7 -15 18 -11 24 4 7 1 12 -8 12 -19 0 -22 -26 -4 -32 15 -5
1 -28 -18 -28 -17 0 -19 41 -3 57 9 9 15 96 18 264 1 45 73 143 122 167 24 12
82 42 129 67 89 47 96 50 103 38z m597 -48 c-7 -8 -17 -15 -22 -15 -6 0 -5 7
2 15 7 8 17 15 22 15 6 0 5 -7 -2 -15z m115 -5 c-3 -5 -11 -10 -16 -10 -6 0
-7 5 -4 10 3 6 11 10 16 10 6 0 7 -4 4 -10z m31 -66 l-15 -29 -1 45 c0 41 1
43 16 28 14 -14 14 -18 0 -44z m-211 36 c-3 -5 -12 -10 -18 -10 -7 0 -6 4 3
10 19 12 23 12 15 0z m-570 -30 c3 -6 -4 -10 -17 -10 -18 0 -20 2 -8 10 19 12
18 12 25 0z m109 -98 c20 -52 20 -51 -2 -45 -10 2 -24 -3 -31 -11 -8 -9 -22
-16 -32 -16 -11 0 -19 -4 -19 -10 0 -5 -7 -10 -16 -10 -8 0 -12 -4 -9 -10 3
-5 1 -10 -4 -10 -6 0 -11 10 -11 23 0 12 -5 29 -10 37 -6 10 -5 20 4 30 32 37
20 79 -18 64 -11 -4 -16 -1 -16 10 0 17 30 22 46 7 15 -14 73 -21 80 -10 4 6
1 15 -6 19 -7 4 -9 13 -5 20 8 13 18 -6 49 -88z m451 78 c-10 -11 -21 -17 -24
-14 -3 3 3 12 13 20 28 20 32 17 11 -6z m3095 -32 c0 -14 -16 -9 -36 13 -19
21 -19 21 9 8 15 -7 27 -16 27 -21z m-3930 2 c0 -5 -3 -10 -7 -10 -5 0 -17
-14 -28 -30 -23 -35 -31 -37 -38 -10 -4 14 4 25 27 39 35 23 46 26 46 11z
m3913 -40 c18 0 23 -15 9 -24 -10 -6 -72 42 -72 56 0 7 10 2 23 -10 13 -12 31
-22 40 -22z m-608 -27 c8 -7 20 -13 27 -13 28 0 115 -52 163 -97 7 -7 15 -9
19 -6 9 9 7 -22 -3 -70 -5 -23 -22 -108 -38 -189 -23 -121 -31 -148 -45 -148
-20 0 -207 36 -259 50 l-37 10 5 62 c2 34 9 68 15 75 8 10 8 17 0 25 -17 17
-15 28 3 22 8 -4 15 -1 15 6 0 6 -9 14 -20 17 -20 5 -28 23 -11 23 5 0 17 3
25 6 12 4 15 2 10 -9 -3 -8 -1 -18 4 -21 9 -5 62 106 62 129 0 6 -9 27 -20 48
-11 20 -17 38 -13 38 5 1 14 2 22 3 15 1 25 15 43 61 9 25 12 27 16 11 2 -11
10 -26 17 -33z m509 28 c10 -11 40 -29 67 -40 l49 -22 0 -54 c0 -42 -3 -55
-15 -55 -8 0 -15 -9 -15 -20 0 -11 -4 -20 -10 -20 -5 0 -10 15 -10 33 0 24 -3
28 -10 17 -6 -8 -7 -27 -4 -41 3 -19 -2 -35 -19 -55 -13 -16 -26 -37 -30 -46
-7 -19 -32 -24 -42 -8 -3 5 -11 7 -18 4 -8 -3 -12 10 -12 43 0 41 6 56 43 104
23 31 42 61 42 67 0 6 -16 12 -36 14 l-36 3 21 27 c29 36 26 48 -10 48 -17 0
-28 4 -24 10 10 17 51 11 69 -9z m-2764 -12 c0 -6 -4 -7 -10 -4 -5 3 -10 11
-10 16 0 6 5 7 10 4 6 -3 10 -11 10 -16z m2947 -41 c-2 -13 -4 -3 -4 22 0 25
2 35 4 23 2 -13 2 -33 0 -45z m-4094 15 c3 -16 1 -32 -4 -37 -14 -15 -11 -26
6 -20 10 4 15 0 15 -14 0 -40 -13 -82 -23 -75 -6 4 -7 1 -3 -6 10 -15 -1 -61
-14 -61 -15 0 -24 49 -11 63 8 10 7 17 -2 26 -8 8 -8 14 -2 19 6 4 10 18 8 32
-3 36 7 100 17 100 4 0 10 -12 13 -27z m1167 7 c0 -5 -5 -10 -11 -10 -5 0 -7
5 -4 10 3 6 8 10 11 10 2 0 4 -4 4 -10z m-854 -36 c-4 -9 -9 -15 -11 -12 -3 3
-3 13 1 22 4 9 9 15 11 12 3 -3 3 -13 -1 -22z m829 2 c27 -19 38 -124 15 -131
-10 -3 -22 -17 -28 -30 -6 -14 -16 -25 -21 -25 -5 0 -4 12 4 26 8 17 10 33 5
43 -17 32 -30 105 -22 124 5 11 26 8 47 -7z m-1416 -130 c12 -21 19 -41 16
-45 -6 -5 -29 25 -30 39 0 3 -10 19 -23 37 -12 17 -22 37 -22 43 0 16 30 -22
59 -74z m3577 18 c-4 -9 -9 -15 -11 -12 -3 3 -3 13 1 22 4 9 9 15 11 12 3 -3
3 -13 -1 -22z m504 4 c0 -13 -23 -5 -28 10 -2 7 2 10 12 6 9 -3 16 -11 16 -16z
m865 0 c-4 -13 -15 -36 -26 -53 -10 -16 -26 -47 -35 -68 -12 -28 -21 -36 -34
-32 -13 4 -21 -2 -29 -26 -14 -39 -14 -42 -1 -34 6 3 10 2 10 -4 0 -9 -98
-211 -232 -476 -22 -44 -44 -90 -49 -102 -10 -26 -22 -29 -38 -9 -10 11 28 94
185 408 184 369 209 411 247 417 5 0 5 -9 2 -21z m-1477 0 c5 -7 12 -34 16
-59 7 -46 6 -46 -24 -52 -19 -4 -37 -18 -49 -38 -11 -18 -22 -26 -25 -20 -7
10 9 50 24 61 3 3 12 31 19 63 13 58 21 67 39 45z m1092 -59 c12 -8 10 -9 -7
-4 -14 4 -23 2 -23 -5 0 -6 -5 -8 -11 -4 -8 4 -7 9 2 15 18 11 21 11 39 -2z
m-3210 -16 c-1 -19 -18 -33 -33 -27 -11 4 -24 -2 -37 -17 -12 -15 -19 -19 -20
-10 0 21 43 61 68 61 12 0 22 -3 22 -7z m127 -10 c-14 -50 -17 -74 -9 -69 5 3
4 -10 -2 -29 -13 -42 -28 -47 -20 -7 3 15 1 38 -4 52 -8 20 -6 29 11 48 25 27
30 28 24 5z m-1427 -32 c11 -22 16 -42 12 -45 -4 -2 -17 15 -29 40 -12 24 -18
44 -13 44 5 0 19 -18 30 -39z m157 19 c-6 -25 8 -26 22 -2 12 19 14 12 5 -12
-3 -9 -12 -16 -20 -16 -8 0 -14 -9 -14 -20 0 -11 -5 -20 -11 -20 -7 0 -9 9 -5
23 3 12 6 32 6 45 0 12 5 22 11 22 6 0 9 -9 6 -20z m89 -6 c-4 -9 -9 -15 -11
-12 -3 3 -3 13 1 22 4 9 9 15 11 12 3 -3 3 -13 -1 -22z m404 11 c0 -8 -4 -15
-10 -15 -5 0 -7 7 -4 15 4 8 8 15 10 15 2 0 4 -7 4 -15z m648 -37 c16 -16 15
-28 -3 -28 -8 0 -19 9 -25 20 -8 15 -8 20 3 20 7 0 18 -5 25 -12z m-43 -28 c3
-5 3 -15 -1 -21 -6 -11 -23 6 -24 24 0 10 18 9 25 -3z m-1206 -60 c13 -8 101
-182 101 -198 0 -10 -3 -12 -9 -7 -19 22 -121 226 -120 242 0 13 3 11 10 -7 6
-13 14 -27 18 -30z m684 33 c4 -3 3 -11 -3 -17 -5 -8 -5 -28 2 -54 9 -37 8
-45 -7 -56 -15 -10 -16 -16 -5 -35 7 -14 17 -20 27 -17 9 4 13 1 11 -6 -6 -18
-24 -20 -40 -4 -12 11 -18 12 -28 3 -10 -10 -11 -7 -5 11 10 34 -11 26 -40
-15 -30 -45 -31 -60 -5 -68 11 -3 20 -10 20 -15 0 -15 -20 -22 -33 -12 -17 13
-91 7 -128 -12 -21 -10 -44 -14 -65 -10 -20 4 -34 1 -39 -7 -5 -7 -4 -10 3 -5
11 7 62 -13 62 -24 0 -18 -31 -31 -60 -25 -25 5 -29 4 -24 -9 8 -21 -2 -20
-37 5 -31 22 -38 39 -16 39 8 0 19 11 25 25 10 21 9 25 -4 25 -8 0 -17 7 -21
16 -6 15 -8 15 -20 -2 -13 -17 -14 -17 -28 2 -13 17 -16 17 -26 4 -9 -13 -10
-12 -5 3 3 11 0 17 -9 17 -14 0 -61 58 -53 66 11 10 39 -9 33 -23 -3 -11 -1
-13 10 -9 8 3 15 1 15 -4 0 -5 10 -15 23 -21 21 -12 21 -11 7 7 -8 10 -11 16
-6 12 4 -4 23 2 42 13 44 24 46 24 38 -5 -6 -27 14 -46 26 -25 7 11 13 11 34
-1 14 -7 26 -19 26 -27 0 -7 3 -12 8 -11 4 0 15 -2 25 -7 9 -4 23 -3 30 3 6 6
33 13 60 17 26 4 47 11 47 16 0 5 -5 9 -10 9 -6 0 4 15 22 34 18 19 39 54 46
78 17 55 52 128 61 128 4 0 11 -3 14 -7z m-133 -23 c0 -4 -11 -7 -25 -7 -26 0
-34 12 -12 20 15 5 37 -2 37 -13z m-420 -14 c0 -8 -9 -24 -21 -37 l-20 -24 7
25 c10 39 34 64 34 36z m310 5 c0 -6 -4 -13 -10 -16 -5 -3 -10 1 -10 9 0 9 5
16 10 16 6 0 10 -4 10 -9z m3630 -37 c11 -26 20 -53 20 -60 0 -8 5 -14 11 -14
7 0 8 -14 4 -42 -6 -36 -5 -40 9 -35 11 4 19 0 23 -11 3 -9 13 -25 21 -34 8
-10 12 -28 10 -43 -3 -14 -1 -25 3 -25 5 0 9 7 9 15 0 8 5 15 10 15 11 0 14
-63 3 -73 -3 -4 -12 1 -20 11 -13 15 -13 15 -4 -5 15 -31 14 -40 -11 -63 -31
-28 -15 -36 22 -10 35 25 64 75 56 97 -3 8 -1 23 5 34 6 11 12 32 14 47 1 15
4 34 4 42 2 9 6 6 12 -9 12 -31 9 -130 -5 -139 -6 -4 -18 -16 -26 -27 -14 -19
-14 -20 6 -2 27 23 34 22 34 -6 0 -13 9 -49 20 -81 12 -36 15 -54 7 -49 -18
11 -49 14 -43 4 10 -15 -31 -43 -54 -36 -11 4 -38 4 -60 0 -36 -6 -40 -10 -48
-48 -9 -41 -9 -40 -17 38 -12 133 -66 195 -155 180 -43 -7 -50 -1 -43 38 4 18
12 27 24 27 10 0 30 10 45 23 21 18 27 32 27 65 0 24 4 45 9 48 5 3 6 25 2 49
-11 75 4 109 53 124 1 1 11 -20 23 -45z m-2750 27 c0 -5 7 -17 16 -25 12 -13
13 -16 2 -16 -22 0 -52 26 -44 38 9 14 26 16 26 3z m-1115 -37 c12 -13 13 -19
5 -24 -7 -4 -17 -14 -22 -21 -6 -10 -8 -7 -6 11 1 14 -1 31 -5 38 -12 18 9 15
28 -4z m945 6 c12 -7 12 -12 2 -22 -9 -9 -12 -9 -12 0 0 7 -7 12 -16 10 -10
-2 -19 3 -21 10 -5 14 25 16 47 2z m2160 -31 c0 -4 -8 -6 -17 -4 -71 14 -73
15 -61 28 9 11 18 10 45 -2 18 -8 33 -18 33 -22z m-1702 13 c6 -18 -15 -14
-22 4 -4 10 -1 14 6 12 6 -2 14 -10 16 -16z m-1324 0 c5 -9 -39 -54 -46 -46
-3 3 -1 16 6 29 11 24 30 33 40 17z m1264 -23 c-17 -10 -28 -2 -21 17 4 11 8
12 20 3 11 -10 11 -14 1 -20z m-1386 -24 c4 -20 3 -23 -8 -14 -15 12 -20 54
-5 45 5 -3 11 -17 13 -31z m1148 10 c8 -7 22 -15 31 -18 17 -5 32 -67 17 -67
-12 0 -98 85 -98 98 0 13 26 6 50 -13z m-120 -5 c0 -5 -4 -10 -10 -10 -5 0
-10 5 -10 10 0 6 5 10 10 10 6 0 10 -4 10 -10z m50 2 c0 -5 9 -19 20 -32 11
-13 20 -27 20 -32 0 -4 -9 -3 -20 4 -11 7 -20 16 -20 20 0 5 -4 8 -10 8 -5 0
-9 -5 -7 -11 4 -21 -20 -20 -26 1 -3 11 -1 20 4 20 5 0 9 7 9 15 0 8 7 15 15
15 8 0 15 -4 15 -8z m360 -2 c0 -5 -4 -10 -10 -10 -5 0 -10 5 -10 10 0 6 5 10
10 10 6 0 10 -4 10 -10z m-213 -37 c-3 -10 -5 -4 -5 12 0 17 2 24 5 18 2 -7 2
-21 0 -30z m-1191 -10 c-11 -11 -17 4 -9 23 7 18 8 18 11 1 2 -10 1 -21 -2
-24z m3971 15 c-3 -8 -6 -5 -6 6 -1 11 2 17 5 13 3 -3 4 -12 1 -19z m-3440 6
c-3 -3 -12 -4 -19 -1 -8 3 -5 6 6 6 11 1 17 -2 13 -5z m-477 -14 c0 -5 -4 -10
-10 -10 -5 0 -10 5 -10 10 0 6 5 10 10 10 6 0 10 -4 10 -10z m504 -16 c23 -9
20 -24 -4 -24 -11 0 -20 7 -20 15 0 17 2 18 24 9z m3381 -4 c3 -5 -1 -10 -10
-10 -9 0 -13 5 -10 10 3 6 8 10 10 10 2 0 7 -4 10 -10z m196 -12 c-5 -13 -12
-32 -15 -42 -4 -10 -9 -16 -12 -13 -8 8 16 77 27 77 5 0 5 -9 0 -22z m-3487
-31 c4 -19 3 -26 -4 -22 -5 3 -10 13 -10 21 0 11 -4 12 -18 5 -14 -8 -18 -5
-19 11 -1 13 3 18 13 14 8 -3 14 0 14 6 0 20 17 -5 24 -35z m496 11 c0 -15
-15 -8 -28 12 -12 19 -11 20 8 8 11 -7 20 -16 20 -20z m-680 12 c0 -5 -7 -7
-15 -4 -8 4 -15 8 -15 10 0 2 7 4 15 4 8 0 15 -4 15 -10z m3540 1 c0 -17 -12
-41 -21 -41 -10 0 -12 33 -2 43 9 10 23 9 23 -2z m191 -48 c-9 -15 -10 -13
-11 13 0 17 3 34 8 38 11 12 14 -32 3 -51z m-3140 25 c11 -21 11 -22 -4 -9
-10 7 -17 17 -17 22 0 15 9 10 21 -13z m3192 -44 c5 -29 2 -46 -9 -60 -14 -18
-15 -18 -4 4 7 13 7 28 2 38 -7 12 -12 4 -21 -33 -7 -26 -17 -57 -22 -68 -5
-11 -13 -38 -18 -60 -5 -22 -9 -32 -10 -23 -3 49 60 262 73 247 2 -2 6 -22 9
-45z m-3683 15 c0 -5 -4 -9 -10 -9 -5 0 -10 7 -10 16 0 8 5 12 10 9 6 -3 10
-10 10 -16z m3446 -5 c-4 -9 -9 -15 -11 -12 -3 3 -3 13 1 22 4 9 9 15 11 12 3
-3 3 -13 -1 -22z m-4066 -43 c0 -14 -6 -6 -35 51 -4 7 3 2 14 -11 12 -13 21
-31 21 -40z m680 39 c0 -5 -4 -10 -10 -10 -5 0 -10 5 -10 10 0 6 5 10 10 10 6
0 10 -4 10 -10z m3500 -24 c0 -8 -4 -18 -10 -21 -5 -3 -10 3 -10 14 0 12 5 21
10 21 6 0 10 -6 10 -14z m-3625 -10 c47 -20 46 -40 -1 -33 -39 7 -67 24 -58
38 7 12 19 11 59 -5z m905 -27 c0 -5 -4 -9 -10 -9 -5 0 -10 7 -10 16 0 8 5 12
10 9 6 -3 10 -10 10 -16z m-826 -4 c11 -8 30 -15 43 -15 25 0 28 -7 13 -30 -8
-13 -12 -12 -25 7 -8 12 -25 23 -37 25 -12 2 -23 9 -26 16 -5 16 8 15 32 -3z
m-603 -27 c11 -21 11 -22 -4 -9 -10 7 -17 17 -17 22 0 15 9 10 21 -13z m1286
0 c-3 -8 -6 -5 -6 6 -1 11 2 17 5 13 3 -3 4 -12 1 -19z m93 12 c0 -5 -7 -10
-15 -10 -8 0 -15 5 -15 10 0 6 7 10 15 10 8 0 15 -4 15 -10z m2800 3 c0 -5 -6
-28 -14 -52 -11 -40 -13 -42 -19 -20 -13 49 -8 79 13 79 11 0 20 -3 20 -7z
m-2755 -13 c3 -5 -3 -10 -15 -10 -12 0 -18 5 -15 10 3 6 10 10 15 10 5 0 12
-4 15 -10z m-1313 -27 c16 -15 23 -15 54 -4 30 11 38 11 50 -1 12 -12 9 -13
-21 -10 -19 2 -35 2 -35 -2 0 -3 27 -19 60 -36 33 -17 60 -31 60 -33 0 -1 -13
-2 -29 -2 -16 0 -27 3 -25 7 5 7 -75 48 -94 48 -7 0 -12 3 -12 8 0 4 -12 15
-27 24 -16 10 -22 18 -14 18 8 0 23 -8 33 -17z m168 -5 c0 -7 19 -32 42 -55
23 -24 37 -43 30 -43 -6 0 -29 19 -51 43 -39 41 -51 67 -31 67 6 0 10 -5 10
-12z m-120 -58 c0 -5 -4 -10 -9 -10 -6 0 -13 5 -16 10 -3 6 1 10 9 10 9 0 16
-4 16 -10z m450 -20 c0 -5 -5 -10 -11 -10 -5 0 -7 5 -4 10 3 6 8 10 11 10 2 0
4 -4 4 -10z m-536 -15 c3 -8 1 -15 -3 -15 -5 0 -11 7 -15 15 -3 8 -1 15 3 15
5 0 11 -7 15 -15z m129 1 c9 5 9 4 1 -5 -6 -7 -23 -9 -43 -5 -22 5 -28 9 -20
15 7 4 21 3 31 -2 10 -6 24 -7 31 -3z m111 -7 c-3 -5 -10 -7 -15 -3 -5 3 -7
10 -3 15 3 5 10 7 15 3 5 -3 7 -10 3 -15z m83 -5 c-3 -3 -12 -4 -19 -1 -8 3
-5 6 6 6 11 1 17 -2 13 -5z m-275 -76 c53 -93 109 -210 105 -221 -5 -17 -107
163 -107 189 0 7 -3 14 -7 16 -8 3 -43 62 -43 72 0 20 21 -2 52 -56z m48 52
c0 -5 -4 -10 -10 -10 -5 0 -10 5 -10 10 0 6 5 10 10 10 6 0 10 -4 10 -10z
m186 -18 c-9 -9 -37 8 -31 18 5 8 11 7 21 -1 8 -6 12 -14 10 -17z m1073 -57
c1 -5 -6 -2 -15 7 -10 9 -13 21 -8 29 5 9 9 8 15 -7 4 -10 8 -23 8 -29z m-625
-7 c8 -33 7 -40 -4 -33 -5 3 -10 0 -11 -7 0 -10 -2 -10 -6 0 -2 6 -9 12 -15
12 -6 0 -7 -7 -4 -16 4 -12 1 -14 -14 -9 -19 6 -19 4 -9 -19 13 -27 35 -37 25
-11 -3 8 -1 15 4 15 6 0 10 -4 10 -10 0 -5 5 -10 11 -10 6 0 9 7 5 15 -3 8 -1
15 3 15 13 0 23 -32 14 -41 -12 -11 -444 -239 -454 -239 -4 0 -20 21 -35 46
-23 39 -25 47 -13 59 18 17 465 254 480 255 4 0 9 -10 13 -22z m196 13 c0 -5
3 -18 6 -28 5 -16 4 -16 -10 1 -18 23 -20 36 -6 36 6 0 10 -4 10 -9z m377 3
c-3 -3 -12 -4 -19 -1 -8 3 -5 6 6 6 11 1 17 -2 13 -5z m-1027 -17 c-14 -7 -25
-17 -25 -22 0 -6 -4 -16 -8 -22 -5 -8 -3 -13 5 -13 8 0 6 -5 -5 -11 -21 -12
-37 -4 -37 19 0 21 49 61 75 61 17 1 17 -1 -5 -12z m-100 -27 c-8 -5 -19 -9
-25 -9 -5 0 -4 3 3 6 6 2 12 12 12 21 0 13 3 13 12 4 10 -10 10 -15 -2 -22z
m255 19 c4 -6 5 -12 2 -15 -7 -7 -37 7 -37 17 0 13 27 11 35 -2z m455 -4 c0
-8 -4 -15 -10 -15 -5 0 -10 7 -10 15 0 8 5 15 10 15 6 0 10 -7 10 -15z m-42
-52 c14 -11 12 -13 -12 -13 -22 0 -27 4 -22 16 3 9 7 23 7 32 1 13 3 12 6 -3
3 -11 12 -26 21 -32z m132 37 c0 -5 -5 -10 -11 -10 -5 0 -7 5 -4 10 3 6 8 10
11 10 2 0 4 -4 4 -10z m2798 -116 c137 -68 232 -121 232 -129 0 -22 -17 -61
-35 -78 -15 -16 -32 -9 -234 93 -120 60 -229 119 -242 130 -16 13 -18 18 -6
14 13 -5 17 -1 17 16 0 12 5 30 10 40 8 15 6 21 -7 30 -59 36 60 -16 265 -116z
m-2851 90 c-3 -3 -12 -4 -19 -1 -8 3 -5 6 6 6 11 1 17 -2 13 -5z m3213 -35 c0
-5 5 -7 10 -4 17 10 11 -13 -15 -65 -14 -28 -32 -50 -40 -50 -8 0 -12 -6 -9
-14 5 -12 -188 -425 -226 -486 -6 -8 -28 -52 -50 -97 -22 -46 -51 -90 -65 -99
-23 -15 -37 -43 -15 -29 21 13 8 -19 -54 -140 -35 -68 -66 -129 -68 -136 -3
-9 -185 78 -534 253 -640 321 -612 306 -584 323 6 3 10 -1 10 -10 0 -11 5 -15
15 -11 8 3 15 1 15 -4 0 -10 114 -70 132 -70 4 0 8 5 8 10 0 6 -9 10 -20 10
-11 0 -23 7 -26 15 -4 9 -11 15 -18 14 -22 -2 -56 14 -56 27 0 8 -3 14 -7 14
-5 0 -26 11 -48 25 -33 20 -36 24 -17 25 12 0 30 -9 39 -19 9 -11 20 -18 24
-15 5 3 26 -4 48 -16 22 -11 49 -20 59 -20 11 0 25 -7 32 -15 17 -21 36 -19
53 5 12 17 19 19 40 11 27 -10 47 -33 25 -29 -7 2 -14 -6 -16 -17 -2 -17 2
-21 25 -20 20 0 31 -7 38 -22 5 -13 16 -23 24 -23 8 0 22 -6 30 -14 12 -10 23
-11 41 -4 24 9 23 11 -32 39 -50 25 -80 49 -63 49 6 0 437 -211 658 -321 114
-57 137 -63 137 -34 0 7 29 68 65 135 36 67 65 125 65 129 0 6 41 88 105 211
13 25 38 75 55 113 17 37 36 67 43 67 15 1 57 88 57 118 0 27 86 202 100 202
6 0 10 -5 10 -11z m-3940 -29 c0 -5 -4 -10 -10 -10 -5 0 -10 5 -10 10 0 6 5
10 10 10 6 0 10 -4 10 -10z m585 -50 c4 -16 6 -32 6 -35 0 -2 6 -17 14 -32 9
-17 11 -31 5 -37 -6 -6 -1 -22 15 -42 33 -43 44 -94 21 -94 -9 0 -25 -5 -35
-12 -17 -10 -17 -13 -4 -26 11 -11 17 -12 26 -3 8 8 8 11 -2 11 -7 0 -10 4 -7
9 4 5 16 4 30 -2 24 -12 53 -78 41 -97 -3 -5 5 -28 18 -52 38 -67 61 -148 48
-161 -17 -17 -13 -37 8 -37 10 0 21 -7 24 -15 5 -13 12 -13 54 0 65 20 65 19
9 -16 -57 -36 -396 -219 -406 -219 -6 0 -350 644 -350 655 0 3 6 5 13 5 6 0
109 52 227 115 118 63 220 115 227 115 6 0 14 -13 18 -30z m1175 -1 c0 -5 7
-6 15 -3 9 4 15 0 15 -9 0 -13 -5 -14 -30 -6 -32 12 -40 26 -15 26 8 0 15 -4
15 -8z m70 0 c0 -7 11 -9 30 -5 17 3 30 1 30 -4 0 -10 -10 -12 -55 -14 -11 0
-21 7 -23 17 -2 9 1 17 7 17 6 0 11 -5 11 -11z m77 -21 c-3 -7 -5 -2 -5 12 0
14 2 19 5 13 2 -7 2 -19 0 -25z m130 20 c62 0 73 -2 72 -16 0 -11 -2 -12 -6
-4 -2 6 -10 9 -16 5 -7 -4 -42 -8 -79 -8 -59 0 -68 2 -68 18 0 11 4 15 12 11
6 -4 44 -7 85 -6z m113 -14 c0 -8 -4 -14 -10 -14 -5 0 -10 9 -10 21 0 11 5 17
10 14 6 -3 10 -13 10 -21z m-445 7 c-13 -11 -125 -20 -125 -10 0 8 38 15 100
17 20 1 30 -2 25 -7z m1804 -111 c122 -60 221 -112 221 -115 0 -2 -72 -148
-159 -323 l-159 -319 -339 172 c-494 252 -539 278 -415 241 26 -8 128 -29 227
-47 99 -18 185 -38 190 -44 19 -22 125 -42 125 -24 0 9 -30 20 -39 15 -4 -3
-5 8 -3 25 4 29 27 40 34 17 3 -9 9 -8 22 5 15 15 15 17 2 17 -9 0 -16 8 -16
20 0 22 -15 27 -23 8 -3 -8 -6 -6 -6 5 -1 9 10 23 24 29 28 13 32 33 10 46
-14 7 -14 14 0 67 8 33 15 67 15 76 0 21 28 51 40 44 5 -3 14 3 20 14 9 17 6
23 -14 36 -29 19 -25 42 7 41 28 -1 35 30 8 39 -25 8 -31 65 -7 65 8 0 114
-49 235 -110z m-2714 80 c3 -5 1 -10 -4 -10 -6 0 -11 5 -11 10 0 6 2 10 4 10
3 0 8 -4 11 -10z m665 -20 c0 -5 -4 -10 -10 -10 -5 0 -10 5 -10 10 0 6 5 10
10 10 6 0 10 -4 10 -10z m310 0 c0 -5 -4 -10 -10 -10 -5 0 -10 5 -10 10 0 6 5
10 10 10 6 0 10 -4 10 -10z m560 0 c0 -5 -5 -10 -11 -10 -5 0 -7 5 -4 10 3 6
8 10 11 10 2 0 4 -4 4 -10z m-1560 -10 c0 -5 -7 -10 -16 -10 -8 0 -12 5 -9 10
3 6 10 10 16 10 5 0 9 -4 9 -10z m1073 3 c-7 -2 -19 -2 -25 0 -7 3 -2 5 12 5
14 0 19 -2 13 -5z m154 1 c-3 -3 -12 -4 -19 -1 -8 3 -5 6 6 6 11 1 17 -2 13
-5z m116 -1 c-7 -2 -19 -2 -25 0 -7 3 -2 5 12 5 14 0 19 -2 13 -5z m-1429 -39
c3 -8 2 -12 -4 -9 -6 3 -10 10 -10 16 0 14 7 11 14 -7z m-579 -176 c18 -35 53
-101 77 -148 24 -47 65 -123 90 -170 54 -100 74 -156 36 -100 -13 19 -32 53
-43 75 -11 22 -22 42 -25 45 -5 5 -24 41 -126 238 -35 68 -71 133 -79 145 -25
35 -17 41 11 8 14 -17 40 -59 59 -93z m1400 53 c-9 -8 -418 -151 -432 -151 -3
0 -17 -13 -32 -29 -24 -25 -38 -30 -97 -36 -62 -6 -72 -5 -96 15 -16 12 -28
30 -28 40 0 17 4 18 25 10 20 -8 29 -6 44 9 12 12 23 16 32 10 39 -24 145 -2
424 90 159 52 175 56 160 42z m-624 -56 c-1 -15 -24 -12 -29 3 -3 9 2 13 12
10 10 -1 17 -7 17 -13z m629 10 c0 -8 -111 -57 -117 -52 -2 3 20 16 49 31 54
26 68 30 68 21z m660 -145 c19 -11 29 -19 22 -20 -14 0 -72 28 -72 35 0 9 15
4 50 -15z m-925 -10 c3 -5 1 -10 -4 -10 -6 0 -11 5 -11 10 0 6 2 10 4 10 3 0
8 -4 11 -10z m362 -6 c-3 -3 -12 -4 -19 -1 -8 3 -5 6 6 6 11 1 17 -2 13 -5z
m-457 -190 c0 -10 -28 -34 -39 -34 -6 0 -3 9 7 19 17 19 32 26 32 15z m-69
-32 c-17 -32 -40 -47 -53 -34 -9 9 -8 12 3 12 9 0 24 9 34 20 23 25 29 26 16
2z m95 -7 c-11 -8 -22 -12 -25 -9 -6 6 19 24 34 24 6 -1 1 -7 -9 -15z m-53
-19 c32 12 17 -4 -23 -25 -48 -25 -57 -26 -40 -6 7 8 19 15 26 15 8 0 11 7 8
18 -4 12 -3 13 3 4 5 -7 17 -10 26 -6z m-246 -8 c-2 -7 -10 -12 -16 -10 -6 1
-11 -2 -11 -8 0 -5 -8 -10 -19 -10 -10 0 -24 -7 -31 -15 -7 -8 -19 -15 -26
-15 -19 0 -18 -25 3 -45 15 -16 17 -15 28 11 7 18 14 24 18 17 6 -9 20 -5 53
13 39 22 43 23 33 6 -7 -10 -28 -25 -48 -32 -20 -7 -44 -22 -53 -32 -9 -11
-19 -19 -22 -20 -3 0 -15 -2 -26 -5 -21 -6 -28 -43 -8 -43 20 0 -2 -15 -86
-59 -88 -46 -94 -48 -76 -26 10 12 9 16 -5 21 -9 4 -20 3 -24 -2 -3 -5 -13
-10 -21 -10 -8 -1 -24 -5 -34 -10 -34 -13 -9 13 44 47 28 18 50 38 50 46 0 7
-3 13 -6 13 -10 0 -88 -62 -116 -93 -30 -32 -34 -31 -17 6 6 14 22 31 35 38
13 7 22 14 20 16 -2 3 -14 -1 -26 -7 -11 -6 -26 -10 -33 -7 -6 2 14 17 44 34
169 95 358 193 372 193 5 0 7 -6 4 -12z m133 -14 c0 -8 -5 -12 -10 -9 -6 4 -8
11 -5 16 9 14 15 11 15 -7z m20 -34 c0 -5 -4 -10 -10 -10 -5 0 -10 5 -10 10 0
6 5 10 10 10 6 0 10 -4 10 -10z m-50 -30 c-24 -19 -40 -25 -40 -15 0 5 51 34
60 34 3 0 -6 -8 -20 -19z m-90 -45 c0 -2 -13 -11 -30 -20 -16 -9 -30 -12 -30
-7 0 4 12 13 28 19 15 6 28 11 30 12 1 1 2 -1 2 -4z m-483 -45 c8 -12 9 -21 3
-25 -6 -3 -10 1 -10 9 0 9 -4 16 -10 16 -5 0 -10 5 -10 10 0 16 14 11 27 -10z
m397 -5 c-10 -8 -23 -14 -29 -14 -5 0 -1 6 9 14 11 8 24 15 30 15 5 0 1 -7
-10 -15z m-234 -120 c0 -2 -13 -11 -30 -20 -32 -17 -38 -13 -17 10 11 13 47
21 47 10z m-82 -25 c7 -11 9 -20 4 -20 -10 0 -32 22 -32 32 0 15 15 8 28 -12z"/>
<path d="M4016 3660 c4 -8 11 -30 15 -50 7 -35 7 -35 8 -4 0 16 -6 39 -15 50
-8 10 -12 12 -8 4z"/>
<path d="M2398 3637 c-10 -22 -10 -60 -2 -81 5 -14 38 -16 260 -16 163 0 254
-4 254 -10 0 -6 -80 -10 -219 -10 -163 0 -221 -3 -229 -12 -52 -67 -71 -1027
-23 -1205 10 -37 16 -44 50 -53 25 -6 286 -9 754 -7 639 2 718 4 732 18 31 31
39 144 39 544 0 363 -11 601 -32 680 l-8 30 -435 5 c-239 3 -427 8 -419 12 8
5 217 9 464 10 389 3 450 5 454 18 4 12 2 13 -9 3 -15 -15 -59 -17 -59 -4 0 5
-11 11 -25 13 -20 4 -23 3 -14 -8 9 -11 5 -14 -20 -14 -17 0 -31 4 -31 9 0 5
-11 11 -25 13 -20 4 -23 3 -14 -8 9 -11 5 -14 -25 -14 -33 0 -35 1 -25 23 12
26 -4 82 -21 72 -7 -4 -7 -12 0 -25 15 -28 12 -40 -10 -40 -11 0 -20 5 -20 12
0 6 -3 8 -7 5 -3 -4 2 -16 12 -26 17 -20 14 -20 -361 -23 l-379 -3 -39 -24
c-37 -24 -38 -24 -27 -3 6 12 18 25 25 29 8 4 -75 6 -185 5 -177 -3 -199 -2
-199 12 0 15 17 21 48 17 6 -1 12 5 12 14 0 9 5 13 10 10 6 -3 10 -2 10 3 0 6
-15 12 -33 14 -29 3 -33 1 -29 -14 2 -10 -1 -18 -7 -18 -6 0 -11 10 -11 22 0
24 -14 15 -16 -10 -3 -56 1 -53 -76 -50 l-73 3 -5 50 c-4 35 -7 45 -12 32z
m690 -133 c14 -9 22 -25 21 -37 -1 -12 1 -29 4 -37 11 -29 14 -120 4 -120 -21
0 -77 42 -77 58 0 9 -7 26 -15 36 -20 27 -19 36 5 36 10 0 24 -9 30 -20 6 -11
17 -20 25 -20 19 0 19 5 -2 38 -20 30 -33 42 -48 41 -5 0 -4 -3 3 -6 6 -2 12
-9 12 -15 0 -6 -6 -6 -15 2 -17 14 -16 30 5 47 19 16 21 16 48 -3z m501 -25
c11 -13 20 -31 20 -39 0 -9 -11 -2 -28 18 -18 22 -36 32 -55 32 -23 0 -26 -3
-20 -22 3 -12 28 -44 55 -72 27 -28 49 -55 49 -60 0 -4 12 -23 28 -41 15 -18
35 -43 45 -56 l17 -23 0 31 c0 34 -45 133 -67 146 -7 4 -13 12 -13 17 0 19 16
9 33 -20 10 -16 24 -35 31 -43 8 -7 23 -32 35 -54 22 -45 36 -57 50 -49 9 6
-8 78 -22 92 -4 4 -7 14 -7 22 0 29 50 -39 62 -84 7 -24 16 -44 21 -44 5 0 6
8 3 17 -6 15 -5 15 12 -1 19 -17 20 -16 10 31 -6 26 -15 53 -20 60 -5 7 -5 14
1 17 12 8 24 -14 44 -79 8 -27 23 -63 32 -80 l17 -30 -6 55 c-3 30 -8 79 -12
108 l-7 53 33 -31 c17 -16 36 -27 41 -24 5 3 9 -6 9 -20 0 -14 -4 -28 -10 -31
-5 -3 -10 3 -10 14 0 12 -4 21 -10 21 -13 0 -13 -12 0 -45 5 -14 14 -24 18
-21 17 10 31 -71 38 -221 6 -136 5 -153 -10 -159 -9 -3 -16 -12 -16 -19 0 -8
-8 -11 -20 -8 -11 3 -20 0 -20 -6 0 -5 -7 -8 -15 -5 -8 4 -15 1 -15 -5 0 -6
-6 -11 -14 -11 -28 0 -24 -29 10 -62 18 -18 34 -40 34 -48 -1 -22 -25 -50 -44
-50 -9 0 -16 -6 -16 -14 0 -11 -8 -12 -35 -6 -21 5 -35 4 -38 -3 -2 -6 -11 -5
-25 4 -17 11 -24 11 -34 1 -18 -18 -28 -15 -28 9 0 18 -2 20 -15 9 -13 -10
-13 -15 -3 -21 7 -4 9 -11 5 -15 -4 -4 -21 2 -37 15 -17 12 -35 19 -42 15 -16
-10 -68 -7 -83 6 -7 6 -25 8 -38 4 -24 -5 -26 -3 -23 23 3 21 9 28 25 27 11 0
21 3 21 7 0 11 -36 30 -43 23 -3 -3 -3 3 0 14 4 18 -12 40 -23 30 -2 -3 -6
-29 -8 -59 -3 -30 -9 -67 -15 -83 -7 -16 -8 -38 -4 -50 4 -11 6 -27 5 -33 -2
-7 4 -26 13 -42 18 -36 19 -49 3 -33 -21 21 -26 13 -22 -35 3 -43 3 -44 -5
-15 -11 40 -11 41 -41 44 -21 3 -26 -2 -31 -32 -6 -32 -6 -31 -8 15 -1 57 3
64 41 84 29 15 29 26 0 26 -15 0 -17 11 -15 86 2 47 9 104 17 127 9 23 13 48
10 56 -8 21 23 41 40 27 12 -10 17 -8 26 9 16 30 7 47 -29 55 -32 7 -43 25
-16 25 26 0 18 53 -14 89 -16 18 -33 32 -38 32 -14 -2 -44 29 -38 39 3 6 1 10
-5 10 -6 0 -8 5 -5 11 4 5 -1 19 -10 29 -9 10 -14 23 -11 28 10 17 -19 42 -57
49 -28 4 -37 2 -37 -8 0 -8 -9 -20 -20 -27 -18 -11 -19 -10 -11 11 6 16 2 39
-14 79 -13 31 -26 80 -29 110 -4 29 -10 66 -13 82 l-5 29 226 -5 c223 -5 225
-5 245 -29z m-733 -180 c-9 -26 -16 -57 -16 -67 0 -15 -8 -21 -33 -24 -29 -3
-33 -1 -29 16 3 10 1 17 -4 15 -43 -20 -64 -34 -64 -41 0 -4 -5 -8 -11 -8 -6
0 -17 -7 -26 -16 -12 -11 -13 -18 -4 -27 13 -13 15 -41 2 -33 -5 4 -18 -6 -29
-21 l-21 -28 6 45 c3 25 10 47 15 48 10 4 -10 32 -22 32 -5 0 -10 -8 -12 -17
-4 -16 -5 -16 -15 2 -23 42 -26 90 -6 114 17 20 22 22 41 12 13 -7 20 -17 16
-22 -3 -6 -12 -3 -20 8 -13 17 -13 17 -14 -4 0 -12 5 -23 12 -25 6 -2 11 -18
11 -36 0 -18 4 -32 9 -32 4 0 8 4 8 10 0 5 10 9 23 8 12 -1 36 7 52 19 17 11
42 28 58 37 15 9 27 23 27 30 0 8 9 16 20 19 15 4 20 14 20 39 0 18 4 51 8 73
7 39 7 39 10 -19 2 -35 -3 -79 -12 -107z m246 -23 c6 -8 8 -7 8 2 0 17 27 15
34 -4 3 -9 2 -12 -5 -8 -7 4 -9 -2 -7 -16 2 -15 -3 -25 -17 -30 -23 -8 -75 7
-60 18 16 11 16 32 0 38 -8 3 -12 10 -9 15 7 12 46 1 56 -15z m-359 -98 c-11
-13 -28 -36 -37 -53 l-16 -30 6 28 c4 17 2 27 -5 27 -6 0 -11 5 -11 11 0 6 7
9 15 5 8 -3 15 -1 15 5 0 5 10 14 23 19 32 13 33 12 10 -12z m380 -39 c4 -16
3 -18 -9 -8 -16 13 -19 29 -5 29 5 0 11 -9 14 -21z m53 -35 c-5 -14 43 -129
50 -121 3 2 0 16 -6 31 -12 33 -14 94 -1 81 9 -11 35 -119 48 -200 7 -41 12
-50 28 -50 17 0 20 -6 17 -42 -2 -29 1 -43 9 -43 7 0 -7 -14 -30 -30 -46 -34
-48 -54 -8 -98 18 -19 19 -27 10 -52 -7 -19 -7 -32 -1 -38 13 -13 -26 -38 -72
-46 -27 -4 -31 -3 -17 5 17 10 23 40 10 53 -8 7 -9 11 -12 37 0 5 -6 7 -11 4
-6 -3 -17 1 -26 9 -21 21 -24 20 -57 -10 -19 -18 -26 -32 -22 -45 7 -22 -10
-26 -19 -4 -3 8 -12 15 -21 15 -8 0 -15 5 -15 10 0 6 11 10 25 10 23 0 31 10
25 35 -8 37 -8 65 0 65 5 0 5 14 -1 32 -11 42 -12 41 5 35 15 -6 49 30 41 43
-4 6 1 7 11 3 13 -5 16 -3 11 10 -5 13 -1 17 16 17 12 0 34 12 50 25 30 26 35
40 12 31 -9 -3 -15 0 -15 9 0 7 10 17 22 21 l23 7 -25 10 c-14 6 -29 11 -35
11 -11 1 -54 175 -47 194 3 10 8 10 19 1 7 -7 12 -18 9 -25z m-186 -14 c0 -22
-28 -34 -46 -19 -20 16 -17 28 9 38 27 11 37 6 37 -19z m-311 -32 c-8 -28 -29
-62 -29 -46 0 10 30 78 34 78 3 0 0 -14 -5 -32z m215 -25 c-10 -40 -14 -41
-14 -5 0 18 5 32 10 32 6 0 8 -11 4 -27z m-165 -31 c-6 -18 -14 -32 -19 -32
-4 0 0 16 8 35 19 42 26 40 11 -3z m665 1 c-3 -39 -5 -41 -13 -13 -6 20 -2 32
14 40 1 0 0 -12 -1 -27z m-544 -79 c0 -8 -4 -12 -10 -9 -5 3 -10 10 -10 16 0
5 5 9 10 9 6 0 10 -7 10 -16z m-145 -53 c3 -5 1 -12 -5 -16 -5 -3 -10 1 -10 9
0 18 6 21 15 7z m385 -15 c0 -8 -4 -18 -10 -21 -5 -3 -10 3 -10 14 0 12 5 21
10 21 6 0 10 -6 10 -14z m37 -2 c-3 -3 -12 -4 -19 -1 -8 3 -5 6 6 6 11 1 17
-2 13 -5z m-237 -13 c0 -6 -4 -13 -10 -16 -5 -3 -10 1 -10 9 0 9 5 16 10 16 6
0 10 -4 10 -9z m-186 -53 c3 -17 6 -50 6 -73 0 -27 6 -47 16 -56 17 -14 12
-68 -7 -80 -19 -12 -47 28 -52 73 -3 24 -8 64 -12 89 -12 77 34 122 49 47z
m373 -10 c-3 -8 -6 -5 -6 6 -1 11 2 17 5 13 3 -3 4 -12 1 -19z m293 -86 c0
-21 -2 -24 -10 -12 -13 20 -13 53 0 45 6 -3 10 -18 10 -33z m470 -112 c0 -5
-4 -10 -10 -10 -5 0 -10 5 -10 10 0 6 5 10 10 10 6 0 10 -4 10 -10z m-105 -20
c-3 -5 -11 -10 -16 -10 -6 0 -7 5 -4 10 3 6 11 10 16 10 6 0 7 -4 4 -10z
m-1017 -86 c2 -34 1 -37 -11 -22 -17 21 -27 13 -27 -21 0 -21 -2 -23 -10 -11
-11 17 -4 68 13 88 17 22 32 7 35 -34z m1035 19 c17 6 47 -22 52 -50 1 -10 8
-17 14 -15 7 1 23 3 36 4 14 1 28 10 31 20 4 14 16 18 60 18 l55 0 -3 -37 -3
-38 -135 3 c-155 3 -240 11 -240 22 0 5 -18 11 -41 15 -30 5 -39 11 -37 23 3
14 18 18 83 20 60 2 82 7 89 19 6 12 10 13 16 3 4 -7 15 -10 23 -7z m-432 -8
c0 -5 -9 -11 -21 -13 -20 -3 -27 8 -13 22 10 9 34 3 34 -9z m-487 -21 c29 -11
12 -64 -20 -64 -18 0 -28 39 -14 55 14 17 13 17 34 9z m91 -34 c0 -18 -6 -26
-23 -28 -24 -4 -38 18 -28 44 3 9 15 14 28 12 17 -2 23 -10 23 -28z m44 3 c-7
-10 -15 -20 -16 -22 -2 -2 -3 5 -3 17 0 14 6 22 16 22 14 0 15 -3 3 -17z m-79
-94 c0 -10 -4 -19 -9 -19 -12 0 -23 29 -15 41 8 14 24 0 24 -22z m452 18 c6
-9 10 -9 17 2 5 8 14 10 22 5 21 -13 47 -15 54 -4 3 6 30 10 60 10 49 0 56 -3
84 -36 22 -27 35 -35 50 -31 27 7 35 -7 16 -27 -21 -21 -80 -27 -219 -24
l-119 3 -14 40 c-21 61 -37 69 -29 14 7 -45 6 -47 -21 -52 -36 -7 -40 -2 -48
58 l-6 50 73 2 c47 1 75 -2 80 -10z m-395 -79 c-3 -7 -5 -2 -5 12 0 14 2 19 5
13 2 -7 2 -19 0 -25z m-90 -10 c-3 -8 -6 -5 -6 6 -1 11 2 17 5 13 3 -3 4 -12
1 -19z m883 2 c0 -5 -4 -10 -10 -10 -5 0 -10 5 -10 10 0 6 5 10 10 10 6 0 10
-4 10 -10z"/>
<path d="M3073 3383 c-22 -8 -14 -23 12 -21 14 1 24 7 22 12 -4 12 -18 16 -34
9z"/>
<path d="M3910 2880 c0 -5 5 -10 11 -10 5 0 7 5 4 10 -3 6 -8 10 -11 10 -2 0
-4 -4 -4 -10z"/>
<path d="M3874 2867 c-3 -9 -3 -25 1 -34 6 -16 8 -16 18 5 7 16 7 26 -1 34 -8
8 -13 7 -18 -5z"/>
<path d="M3500 2801 c0 -17 38 -56 47 -48 4 5 0 14 -10 21 -9 7 -17 18 -17 25
0 6 -4 11 -10 11 -5 0 -10 -4 -10 -9z"/>
<path d="M3820 2739 c0 -5 9 -9 20 -9 11 0 20 2 20 4 0 2 -9 6 -20 9 -11 3
-20 1 -20 -4z"/>
<path d="M3711 2704 c0 -7 -12 -15 -26 -18 -25 -6 -36 -36 -12 -36 23 1 49 28
44 47 -3 10 -5 13 -6 7z"/>
<path d="M2440 3615 c0 -19 4 -35 9 -35 12 0 19 29 13 53 -7 30 -22 18 -22
-18z"/>
<path d="M2501 3618 c0 -21 3 -38 9 -38 5 0 7 8 3 18 -6 15 -4 15 15 -2 20
-18 22 -18 22 -2 0 10 -9 20 -19 23 -11 3 -22 12 -24 22 -3 9 -5 -1 -6 -21z"/>
<path d="M2710 3615 c0 -19 5 -35 10 -35 6 0 10 16 10 35 0 19 -4 35 -10 35
-5 0 -10 -16 -10 -35z"/>
<path d="M2808 3613 c5 -40 7 -39 15 3 4 21 2 31 -6 31 -8 0 -11 -12 -9 -34z"/>
<path d="M2980 3616 c0 -20 5 -36 10 -36 6 0 10 13 10 29 0 17 -4 33 -10 36
-6 4 -10 -8 -10 -29z"/>
<path d="M3853 3633 c-7 -3 -13 -13 -13 -24 0 -23 45 -27 54 -4 6 16 -22 35
-41 28z"/>
<path d="M3940 3625 c-19 -22 5 -48 31 -34 10 5 19 14 19 19 0 5 -9 14 -19 19
-14 8 -22 7 -31 -4z"/>
<path d="M2680 3605 c0 -14 4 -25 9 -25 5 0 9 11 9 25 0 14 -4 25 -9 25 -5 0
-9 -11 -9 -25z"/>
<path d="M2740 3606 c0 -14 5 -26 10 -26 6 0 10 9 10 19 0 11 -4 23 -10 26 -6
4 -10 -5 -10 -19z"/>
<path d="M2850 3606 c0 -14 5 -26 10 -26 6 0 10 9 10 19 0 11 -4 23 -10 26 -6
4 -10 -5 -10 -19z"/>
<path d="M2887 3623 c-10 -9 -8 -43 2 -43 5 0 11 11 13 25 5 24 -2 32 -15 18z"/>
<path d="M2920 3600 c0 -11 5 -20 10 -20 6 0 10 7 10 16 0 8 5 12 10 9 6 -3
10 -1 10 4 0 6 -9 11 -20 11 -13 0 -20 -7 -20 -20z"/>
<path d="M4025 3520 c-3 -5 -2 -10 4 -10 5 0 13 5 16 10 3 6 2 10 -4 10 -5 0
-13 -4 -16 -10z"/>
<path d="M2412 3450 c0 -14 2 -19 5 -12 2 6 2 18 0 25 -3 6 -5 1 -5 -13z"/>
<path d="M2402 3270 c0 -19 2 -27 5 -17 2 9 2 25 0 35 -3 9 -5 1 -5 -18z"/>
<path d="M2385 3068 c-15 -320 8 -830 36 -812 5 3 7 9 4 14 -3 4 -12 93 -21
197 -13 145 -15 253 -10 471 3 155 4 282 2 282 -2 0 -7 -69 -11 -152z"/>
<path d="M4013 2207 c12 -13 24 -22 26 -20 6 4 -30 43 -40 43 -5 0 2 -10 14
-23z"/>
<path d="M2394 2196 c-3 -7 -4 -33 -2 -57 l3 -44 814 -3 c517 -1 818 1 825 8
6 6 -4 7 -27 3 -20 -3 -44 -2 -54 2 -16 6 -16 8 4 15 33 13 45 43 27 68 -33
47 -111 3 -84 -47 6 -12 15 -21 20 -21 6 0 10 -4 10 -10 0 -6 -273 -9 -755 -8
-626 1 -757 3 -766 14 -7 9 -9 30 -5 54 6 39 1 54 -10 26z m1560 -14 c2 -4 -4
-13 -15 -20 -15 -10 -19 -10 -19 1 0 24 23 36 34 19z"/>
<path d="M3120 2171 c0 -17 5 -31 10 -31 6 0 10 11 10 24 0 14 -4 28 -10 31
-6 4 -10 -7 -10 -24z"/>
<path d="M2460 2165 c0 -14 5 -25 10 -25 6 0 10 11 10 25 0 14 -4 25 -10 25
-5 0 -10 -11 -10 -25z"/>
<path d="M2490 2180 c0 -5 4 -10 9 -10 6 0 13 5 16 10 3 6 -1 10 -9 10 -9 0
-16 -4 -16 -10z"/>
<path d="M2810 2179 c0 -5 -4 -8 -8 -5 -4 2 -13 -4 -20 -15 -11 -17 -9 -19 18
-19 25 0 30 4 30 25 0 14 -4 25 -10 25 -5 0 -10 -5 -10 -11z"/>
<path d="M2843 2166 c0 -17 5 -24 17 -23 15 1 16 5 7 24 -13 30 -24 29 -24 -1z"/>
<path d="M3092 2165 c0 -16 2 -22 5 -12 2 9 2 23 0 30 -3 6 -5 -1 -5 -18z"/>
<path d="M3309 2168 c-1 -17 -3 -18 -6 -5 -6 23 -23 22 -23 -3 0 -25 37 -27
43 -2 4 16 5 16 6 0 1 -22 21 -24 21 -3 0 8 -9 19 -20 25 -17 9 -20 8 -21 -12z"/>
<path d="M2550 2166 c0 -8 -6 -17 -12 -19 -7 -3 -3 -6 10 -6 22 -1 31 22 12
34 -5 3 -10 0 -10 -9z"/>
<path d="M2587 2173 c-11 -11 -8 -33 5 -33 6 0 8 3 5 7 -4 3 -2 12 4 20 11 13
-2 19 -14 6z"/>
<path d="M2627 2173 c-11 -10 -8 -33 3 -33 6 0 10 7 10 16 0 8 5 12 10 9 6 -3
10 -1 10 4 0 12 -23 15 -33 4z"/>
<path d="M2676 2172 c-3 -5 1 -15 9 -22 16 -14 20 -3 6 19 -5 8 -11 9 -15 3z"/>
<path d="M2727 2173 c-14 -13 -7 -29 13 -30 22 -2 23 -1 14 21 -7 17 -16 20
-27 9z"/>
<path d="M2893 2165 c-8 -22 6 -33 17 -15 13 20 12 30 0 30 -6 0 -13 -7 -17
-15z"/>
<path d="M2937 2173 c-10 -9 -8 -33 2 -33 5 0 11 9 14 20 5 20 -3 26 -16 13z"/>
<path d="M3156 2172 c-2 -4 -1 -14 5 -22 7 -12 9 -10 9 8 0 23 -5 28 -14 14z"/>
<path d="M3190 2148 c0 -27 1 -28 16 -14 8 9 20 14 25 10 5 -3 16 2 25 10 8 9
14 16 12 17 -2 1 -20 2 -40 3 -36 3 -38 1 -38 -26z"/>
<path d="M2525 2070 c-7 -12 2 -12 30 0 19 8 19 9 -2 9 -12 1 -25 -3 -28 -9z"/>
<path d="M2588 2073 c7 -3 16 -2 19 1 4 3 -2 6 -13 5 -11 0 -14 -3 -6 -6z"/>
<path d="M3980 2073 c0 -5 4 -13 10 -19 6 -6 11 -138 13 -334 l2 -325 3 331
c2 285 0 333 -13 344 -8 7 -15 8 -15 3z"/>
<path d="M2618 2024 c-3 -3 1 -20 10 -37 12 -24 17 -28 20 -15 4 19 -21 62
-30 52z"/>
<path d="M2650 2020 c0 -5 5 -10 10 -10 6 0 10 5 10 10 0 6 -4 10 -10 10 -5 0
-10 -4 -10 -10z"/>
<path d="M2972 1995 c0 -16 2 -22 5 -12 2 9 2 23 0 30 -3 6 -5 -1 -5 -18z"/>
<path d="M3025 2010 c3 -5 8 -10 11 -10 2 0 4 5 4 10 0 6 -5 10 -11 10 -5 0
-7 -4 -4 -10z"/>
<path d="M3081 2004 c0 -11 3 -14 6 -6 3 7 2 16 -1 19 -3 4 -6 -2 -5 -13z"/>
<path d="M3167 2013 c-9 -9 -9 -43 1 -43 4 0 8 11 8 25 2 27 1 29 -9 18z"/>
<path d="M2686 1995 c4 -8 11 -15 16 -15 6 0 5 6 -2 15 -7 8 -14 15 -16 15 -2
0 -1 -7 2 -15z"/>
<path d="M2800 2000 c0 -5 5 -10 11 -10 5 0 7 5 4 10 -3 6 -8 10 -11 10 -2 0
-4 -4 -4 -10z"/>
<path d="M3625 2000 c-3 -5 -1 -10 4 -10 6 0 11 5 11 10 0 6 -2 10 -4 10 -3 0
-8 -4 -11 -10z"/>
<path d="M3790 2005 c0 -5 5 -17 10 -25 5 -8 10 -10 10 -5 0 6 -5 17 -10 25
-5 8 -10 11 -10 5z"/>
<path d="M2726 1985 c-3 -9 0 -15 9 -15 8 0 15 7 15 15 0 8 -4 15 -9 15 -5 0
-11 -7 -15 -15z"/>
<path d="M2781 1983 c-1 -23 22 -32 34 -13 3 6 0 10 -9 10 -8 0 -17 6 -19 13
-3 6 -6 2 -6 -10z"/>
<path d="M2830 1986 c0 -9 5 -16 10 -16 6 0 10 4 10 9 0 6 -4 13 -10 16 -5 3
-10 -1 -10 -9z"/>
<path d="M2891 1984 c0 -11 3 -14 6 -6 3 7 2 16 -1 19 -3 4 -6 -2 -5 -13z"/>
<path d="M3107 1993 c-10 -9 -9 -23 1 -23 5 0 9 7 9 15 0 17 -1 18 -10 8z"/>
<path d="M3211 1984 c0 -11 3 -14 6 -6 3 7 2 16 -1 19 -3 4 -6 -2 -5 -13z"/>
<path d="M3230 1985 c0 -8 2 -15 4 -15 2 0 6 7 10 15 3 8 1 15 -4 15 -6 0 -10
-7 -10 -15z"/>
<path d="M3297 1993 c-10 -9 -9 -23 1 -23 5 0 9 7 9 15 0 17 -1 18 -10 8z"/>
<path d="M3336 1985 c-3 -8 -1 -15 4 -15 6 0 10 7 10 15 0 8 -2 15 -4 15 -2 0
-6 -7 -10 -15z"/>
<path d="M3431 1984 c0 -11 3 -14 6 -6 3 7 2 16 -1 19 -3 4 -6 -2 -5 -13z"/>
<path d="M3510 1985 c0 -8 2 -15 4 -15 2 0 6 7 10 15 3 8 1 15 -4 15 -6 0 -10
-7 -10 -15z"/>
<path d="M3681 1984 c0 -11 3 -14 6 -6 3 7 2 16 -1 19 -3 4 -6 -2 -5 -13z"/>
<path d="M3820 1991 c0 -5 5 -13 10 -16 6 -3 10 -2 10 4 0 5 -4 13 -10 16 -5
3 -10 2 -10 -4z"/>
<path d="M3855 1990 c3 -5 8 -10 11 -10 2 0 4 5 4 10 0 6 -5 10 -11 10 -5 0
-7 -4 -4 -10z"/>
<path d="M3881 1984 c0 -11 3 -14 6 -6 3 7 2 16 -1 19 -3 4 -6 -2 -5 -13z"/>
<path d="M3901 1984 c0 -11 3 -14 6 -6 3 7 2 16 -1 19 -3 4 -6 -2 -5 -13z"/>
<path d="M3370 1975 c7 -9 15 -13 17 -11 7 7 -7 26 -19 26 -6 0 -6 -6 2 -15z"/>
<path d="M3545 1980 c3 -5 8 -10 11 -10 2 0 4 5 4 10 0 6 -5 10 -11 10 -5 0
-7 -4 -4 -10z"/>
<path d="M3730 1980 c0 -5 5 -10 11 -10 5 0 7 5 4 10 -3 6 -8 10 -11 10 -2 0
-4 -4 -4 -10z"/>
<path d="M2704 1916 c-8 -21 16 -40 30 -26 7 7 4 16 -7 27 -15 15 -17 15 -23
-1z"/>
<path d="M2752 1905 c0 -16 2 -22 5 -12 2 9 2 23 0 30 -3 6 -5 -1 -5 -18z"/>
<path d="M2650 1908 c0 -9 5 -20 10 -23 13 -8 13 5 0 25 -8 13 -10 13 -10 -2z"/>
<path d="M2681 1904 c0 -11 3 -14 6 -6 3 7 2 16 -1 19 -3 4 -6 -2 -5 -13z"/>
<path d="M2781 1898 c1 -18 2 -19 6 -5 2 9 9 15 14 12 5 -4 9 -1 9 4 0 6 -7
11 -15 11 -9 0 -15 -9 -14 -22z"/>
<path d="M2620 1890 c0 -5 5 -10 11 -10 5 0 7 5 4 10 -3 6 -8 10 -11 10 -2 0
-4 -4 -4 -10z"/>
<path d="M2610 1754 c0 -24 4 -34 13 -31 6 2 11 17 10 33 -2 24 0 26 8 11 6
-9 14 -15 18 -12 5 2 11 -4 14 -14 7 -29 57 -16 57 14 0 18 -4 22 -20 18 -11
-3 -20 -10 -20 -16 0 -6 -7 -1 -16 11 -8 12 -26 22 -40 22 -21 0 -24 -4 -24
-36z"/>
<path d="M2796 1765 c4 -16 2 -25 -6 -25 -7 0 -10 7 -7 15 7 16 -9 30 -17 16
-11 -18 6 -41 30 -41 24 0 30 14 18 44 -10 26 -25 18 -18 -9z"/>
<path d="M2990 1760 c0 -16 4 -30 8 -30 5 0 7 14 4 30 -2 17 -6 30 -8 30 -2 0
-4 -13 -4 -30z"/>
<path d="M3050 1761 c0 -17 5 -33 10 -36 6 -4 10 8 10 29 0 20 -4 36 -10 36
-5 0 -10 -13 -10 -29z"/>
<path d="M3170 1760 c0 -16 5 -30 10 -30 6 0 10 14 10 30 0 17 -4 30 -10 30
-5 0 -10 -13 -10 -30z"/>
<path d="M3330 1777 c0 -16 30 -42 51 -43 8 -1 15 7 15 17 0 12 -4 15 -12 8
-7 -6 -15 -4 -23 5 -9 11 -9 15 1 19 7 3 3 6 -9 6 -13 1 -23 -5 -23 -12z"/>
<path d="M3420 1781 c0 -5 5 -13 10 -16 6 -3 10 -2 10 4 0 5 -4 13 -10 16 -5
3 -10 2 -10 -4z"/>
<path d="M3021 1764 c0 -11 3 -14 6 -6 3 7 2 16 -1 19 -3 4 -6 -2 -5 -13z"/>
<path d="M3470 1770 c0 -5 5 -10 11 -10 5 0 7 5 4 10 -3 6 -8 10 -11 10 -2 0
-4 -4 -4 -10z"/>
<path d="M2845 1760 c-3 -5 -1 -10 4 -10 6 0 11 5 11 10 0 6 -2 10 -4 10 -3 0
-8 -4 -11 -10z"/>
<path d="M3110 1762 c1 -19 17 -30 30 -22 8 5 11 12 7 16 -10 10 -37 14 -37 6z"/>
<path d="M3560 1750 c0 -11 2 -20 4 -20 2 0 6 9 9 20 3 11 1 20 -4 20 -5 0 -9
-9 -9 -20z"/>
<path d="M3650 1750 c0 -11 5 -20 11 -20 5 0 8 4 4 9 -3 5 -1 12 4 15 5 3 12
-1 15 -10 4 -9 9 -14 13 -11 8 9 -17 37 -33 37 -8 0 -14 -9 -14 -20z"/>
<path d="M3722 1749 c-11 -16 -9 -19 8 -19 11 0 20 6 20 14 0 24 -15 26 -28 5z"/>
<path d="M3760 1750 c0 -11 4 -20 8 -20 4 0 8 9 8 20 0 11 -4 20 -8 20 -4 0
-8 -9 -8 -20z"/>
<path d="M3791 1753 c-1 -14 5 -23 14 -23 8 0 15 8 15 18 0 14 -2 14 -9 3 -7
-11 -10 -10 -14 5 -4 16 -5 16 -6 -3z"/>
<path d="M3837 1763 c-11 -10 -8 -33 3 -33 6 0 10 8 11 18 0 14 3 13 16 -5 17
-26 38 -31 29 -8 -3 8 -1 15 5 15 6 0 7 5 4 10 -7 11 -58 14 -68 3z"/>
<path d="M3221 1744 c0 -11 3 -14 6 -6 3 7 2 16 -1 19 -3 4 -6 -2 -5 -13z"/>
<path d="M3270 1745 c0 -8 4 -15 10 -15 5 0 7 7 4 15 -4 8 -8 15 -10 15 -2 0
-4 -7 -4 -15z"/>
<path d="M3451 1744 c0 -11 3 -14 6 -6 3 7 2 16 -1 19 -3 4 -6 -2 -5 -13z"/>
<path d="M3512 1748 c2 -6 10 -14 16 -16 7 -2 10 2 6 12 -7 18 -28 22 -22 4z"/>
<path d="M2570 1720 c0 -16 4 -30 8 -30 5 0 9 14 10 30 0 17 -4 30 -9 30 -5 0
-9 -13 -9 -30z"/>
<path d="M3425 1740 c-3 -5 -1 -10 4 -10 6 0 11 5 11 10 0 6 -2 10 -4 10 -3 0
-8 -4 -11 -10z"/>
<path d="M3610 1740 c0 -5 5 -10 11 -10 5 0 7 5 4 10 -3 6 -8 10 -11 10 -2 0
-4 -4 -4 -10z"/>
<path d="M2690 1688 c0 -16 -3 -19 -9 -10 -10 16 -34 12 -43 -8 -5 -10 -7 -7
-7 10 -1 17 -4 21 -12 13 -20 -20 -6 -46 24 -47 16 -1 31 2 33 6 3 4 10 5 17
3 7 -2 25 -6 41 -10 26 -5 28 -4 17 9 -11 13 -11 16 3 16 9 0 16 -6 16 -12 0
-9 4 -8 10 2 9 13 11 13 20 0 7 -11 10 -11 10 -2 0 7 5 10 10 7 6 -3 10 -1 10
4 0 6 -6 12 -12 12 -60 7 -80 5 -93 -8 -13 -13 -15 -12 -15 6 0 11 -4 23 -10
26 -6 3 -10 -4 -10 -17z"/>
<path d="M3090 1681 c0 -19 5 -31 13 -31 18 0 19 36 1 51 -12 9 -14 6 -14 -20z"/>
<path d="M3341 1680 c-1 -31 2 -35 25 -36 16 -1 24 2 21 10 -3 6 7 17 20 23
22 11 25 10 20 -6 -3 -14 1 -18 18 -18 16 0 22 4 18 13 -3 8 -9 12 -13 9 -4
-3 -10 5 -14 18 -4 14 -9 18 -13 11 -5 -6 -22 -15 -40 -18 -25 -6 -32 -4 -36
11 -3 10 -5 2 -6 -17z"/>
<path d="M3201 1684 c0 -11 3 -14 6 -6 3 7 2 16 -1 19 -3 4 -6 -2 -5 -13z"/>
<path d="M3490 1677 c0 -17 5 -27 15 -27 19 0 19 9 0 34 -14 19 -15 19 -15 -7z"/>
<path d="M3532 1675 c1 -14 6 -25 10 -25 4 0 8 11 8 25 0 14 -4 25 -10 25 -5
0 -9 -11 -8 -25z"/>
<path d="M3004 1675 c-4 -9 -4 -19 0 -22 3 -4 6 2 6 13 0 16 2 17 10 4 6 -9
10 -10 10 -3 0 19 -20 26 -26 8z"/>
<path d="M3060 1670 c0 -11 5 -20 10 -20 6 0 10 9 10 20 0 11 -4 20 -10 20 -5
0 -10 -9 -10 -20z"/>
<path d="M3220 1684 c0 -16 22 -34 41 -34 12 0 16 6 12 20 -3 11 -9 17 -14 14
-5 -3 -6 -11 -2 -17 3 -7 -3 -3 -15 7 -12 11 -22 15 -22 10z"/>
<path d="M3290 1671 c0 -10 8 -21 19 -24 15 -3 18 1 17 19 -1 29 -36 34 -36 5z"/>
<path d="M2900 1670 c0 -5 5 -10 10 -10 6 0 10 5 10 10 0 6 -4 10 -10 10 -5 0
-10 -4 -10 -10z"/>
<path d="M3126 1672 c-3 -6 -1 -14 5 -17 14 -9 20 -2 10 14 -6 8 -11 9 -15 3z"/>
<path d="M2620 1520 c0 -16 4 -30 8 -30 5 0 7 14 4 30 -2 17 -6 30 -8 30 -2 0
-4 -13 -4 -30z"/>
<path d="M2658 1521 c3 -19 10 -26 27 -27 24 -2 24 -1 7 22 -25 34 -39 36 -34
5z"/>
<path d="M2992 1515 c0 -16 2 -22 5 -12 2 9 2 23 0 30 -3 6 -5 -1 -5 -18z"/>
<path d="M3110 1530 c0 -16 21 -34 43 -38 24 -4 22 1 -13 26 -16 13 -30 18
-30 12z"/>
<path d="M2762 1510 c0 -14 2 -19 5 -12 2 6 2 18 0 25 -3 6 -5 1 -5 -13z"/>
<path d="M2790 1510 c0 -17 2 -19 14 -8 14 13 12 28 -5 28 -5 0 -9 -9 -9 -20z"/>
<path d="M3080 1510 c0 -11 4 -20 9 -20 5 0 7 9 4 20 -3 11 -7 20 -9 20 -2 0
-4 -9 -4 -20z"/>
<path d="M3195 1517 c-4 -10 -5 -21 -1 -24 10 -10 18 4 13 24 -4 17 -4 17 -12
0z"/>
<path d="M3249 1528 c-7 -15 -6 -58 2 -58 5 0 9 11 9 25 0 24 1 25 24 10 22
-15 24 -14 29 5 4 17 3 19 -8 10 -9 -8 -15 -8 -20 0 -5 9 -33 15 -36 8z"/>
<path d="M3330 1508 c0 -19 2 -20 10 -8 13 19 13 30 0 30 -5 0 -10 -10 -10
-22z"/>
<path d="M3369 1528 c-6 -21 -5 -38 2 -38 5 0 9 9 9 20 0 16 -7 28 -11 18z"/>
<path d="M3400 1513 c0 -19 5 -23 30 -23 20 0 30 5 30 15 0 18 -16 20 -23 3
-3 -9 -10 -7 -21 7 -15 20 -15 20 -16 -2z"/>
<path d="M3483 1515 c-3 -9 -3 -18 -1 -21 3 -3 8 4 11 16 6 23 -1 27 -10 5z"/>
<path d="M3560 1508 c0 -10 5 -18 11 -18 5 0 8 4 4 9 -3 5 -1 12 5 16 5 3 10
-1 10 -9 0 -22 17 -20 22 2 4 13 -1 17 -24 17 -20 1 -28 -4 -28 -17z"/>
<path d="M3854 1524 c-13 -6 -6 -54 8 -54 6 0 7 11 4 25 -6 24 7 35 17 15 3
-6 4 -5 3 2 -3 13 -16 18 -32 12z"/>
<path d="M3902 1510 c0 -14 2 -19 5 -12 2 6 2 18 0 25 -3 6 -5 1 -5 -13z"/>
<path d="M2726 1506 c3 -9 11 -16 16 -16 13 0 5 23 -10 28 -7 2 -10 -2 -6 -12z"/>
<path d="M2866 1507 c3 -10 9 -15 12 -12 3 3 0 11 -7 18 -10 9 -11 8 -5 -6z"/>
<path d="M2936 1503 c-6 -14 -5 -15 5 -6 7 7 10 15 7 18 -3 3 -9 -2 -12 -12z"/>
<path d="M3031 1504 c0 -11 3 -14 6 -6 3 7 2 16 -1 19 -3 4 -6 -2 -5 -13z"/>
<path d="M3512 1508 c2 -6 10 -14 16 -16 7 -2 10 2 6 12 -7 18 -28 22 -22 4z"/>
<path d="M3640 1505 c7 -9 15 -13 17 -11 7 7 -7 26 -19 26 -6 0 -6 -6 2 -15z"/>
<path d="M3690 1511 c0 -6 5 -13 10 -16 6 -3 10 1 10 9 0 9 -4 16 -10 16 -5 0
-10 -4 -10 -9z"/>
<path d="M3740 1506 c0 -9 5 -16 10 -16 6 0 10 4 10 9 0 6 -4 13 -10 16 -5 3
-10 -1 -10 -9z"/>
<path d="M3770 1512 c0 -5 7 -15 15 -22 8 -7 15 -8 15 -2 0 5 -7 15 -15 22 -8
7 -15 8 -15 2z"/>
<path d="M2570 1500 c0 -5 5 -10 11 -10 5 0 7 5 4 10 -3 6 -8 10 -11 10 -2 0
-4 -4 -4 -10z"/>
<path d="M3810 1501 c0 -5 5 -13 10 -16 6 -3 10 -2 10 4 0 5 -4 13 -10 16 -5
3 -10 2 -10 -4z"/>
<path d="M2616 1451 c-4 -7 -5 -15 -2 -18 9 -9 19 4 14 18 -4 11 -6 11 -12 0z"/>
<path d="M2741 1438 c-1 -16 4 -28 9 -28 12 0 12 8 0 35 -8 18 -9 17 -9 -7z"/>
<path d="M2878 1455 c-4 -4 -4 -13 -1 -21 7 -18 -7 -18 -34 1 -20 14 -22 14
-20 -5 1 -11 7 -18 13 -16 6 2 17 -1 23 -7 16 -16 34 4 29 33 -1 12 -6 19 -10
15z"/>
<path d="M3067 1453 c-3 -5 -1 -17 4 -28 7 -17 8 -17 8 8 1 27 -4 34 -12 20z"/>
<path d="M3190 1435 c0 -15 6 -25 14 -25 8 0 21 -3 29 -6 11 -4 15 2 15 22 0
25 -2 26 -13 11 -15 -21 -29 -22 -22 -3 3 8 -1 17 -9 20 -10 4 -14 -2 -14 -19z"/>
<path d="M2660 1441 c0 -5 5 -13 10 -16 6 -3 10 -2 10 4 0 5 -4 13 -10 16 -5
3 -10 2 -10 -4z"/>
<path d="M2697 1443 c-4 -3 -7 -16 -6 -27 0 -19 1 -19 10 3 10 24 8 36 -4 24z"/>
<path d="M2777 1430 c-3 -12 0 -20 8 -20 8 0 11 8 8 20 -3 11 -7 20 -8 20 -1
0 -5 -9 -8 -20z"/>
<path d="M2966 1443 c-12 -12 -6 -33 9 -33 8 0 15 6 15 14 0 17 -14 28 -24 19z"/>
<path d="M3001 1423 c0 -24 1 -25 8 -8 7 16 9 17 12 4 3 -11 10 -14 22 -10 15
5 13 9 -13 24 l-30 18 1 -28z"/>
<path d="M3110 1440 c0 -5 5 -10 10 -10 6 0 10 5 10 10 0 6 -4 10 -10 10 -5 0
-10 -4 -10 -10z"/>
<path d="M3166 1437 c3 -10 9 -15 12 -12 3 3 0 11 -7 18 -10 9 -11 8 -5 -6z"/>
<path d="M3274 1435 c-3 -8 -4 -20 -2 -27 3 -7 7 -1 10 15 6 29 1 36 -8 12z"/>
<path d="M2640 1428 c0 -9 5 -20 10 -23 13 -8 13 5 0 25 -8 13 -10 13 -10 -2z"/>
<path d="M2906 1425 c4 -8 8 -15 10 -15 2 0 4 7 4 15 0 8 -4 15 -10 15 -5 0
-7 -7 -4 -15z"/>
<path d="M3141 1424 c0 -11 3 -14 6 -6 3 7 2 16 -1 19 -3 4 -6 -2 -5 -13z"/>
<path d="M3301 1423 c0 -13 2 -14 6 -4 4 11 7 11 14 0 4 -7 11 -10 14 -7 10
10 -4 28 -21 28 -8 0 -14 -8 -13 -17z"/>
<path d="M3847 1378 c-25 -9 -27 -13 -21 -46 8 -45 8 -45 62 -62 37 -12 49
-12 84 1 33 12 44 23 54 52 13 36 12 37 -15 52 -23 11 -34 12 -60 2 -24 -9
-36 -9 -51 1 -11 6 -21 12 -22 11 -2 0 -16 -5 -31 -11z m96 -50 c3 -12 3 -27
-1 -35 -6 -10 -12 -8 -25 7 -9 11 -12 20 -7 20 6 0 10 7 10 15 0 23 17 18 23
-7z"/>
<path d="M4258 3293 c7 -3 16 -2 19 1 4 3 -2 6 -13 5 -11 0 -14 -3 -6 -6z"/>
<path d="M4408 3263 c7 -3 16 -2 19 1 4 3 -2 6 -13 5 -11 0 -14 -3 -6 -6z"/>
<path d="M4508 3243 c7 -3 16 -2 19 1 4 3 -2 6 -13 5 -11 0 -14 -3 -6 -6z"/>
<path d="M4610 3220 c14 -4 34 -8 45 -8 16 0 15 2 -5 8 -14 4 -34 8 -45 8 -16
0 -15 -2 5 -8z"/>
<path d="M4698 3203 c7 -3 16 -2 19 1 4 3 -2 6 -13 5 -11 0 -14 -3 -6 -6z"/>
<path d="M4748 3193 c6 -2 18 -2 25 0 6 3 1 5 -13 5 -14 0 -19 -2 -12 -5z"/>
<path d="M4798 3183 c7 -3 16 -2 19 1 4 3 -2 6 -13 5 -11 0 -14 -3 -6 -6z"/>
<path d="M4718 3138 c-8 -21 2 -38 21 -38 25 0 32 10 20 31 -11 22 -35 25 -41
7z"/>
<path d="M4230 3120 c14 -4 36 -8 50 -8 22 0 22 1 -5 8 -16 4 -39 8 -50 8 -16
0 -15 -2 5 -8z"/>
<path d="M4814 3117 c-8 -9 -7 -16 2 -25 18 -16 31 -15 38 4 12 31 -18 46 -40
21z"/>
<path d="M4700 3091 c0 -9 30 -24 36 -18 2 1 -6 8 -16 15 -11 7 -20 8 -20 3z"/>
<path d="M4790 3083 c0 -13 29 -38 35 -31 3 3 -4 13 -15 23 -11 10 -20 13 -20
8z"/>
<path d="M4327 2744 c3 -7 9 -14 14 -14 14 0 10 17 -5 23 -10 4 -13 1 -9 -9z"/>
<path d="M4256 2391 c-4 -5 3 -7 14 -4 23 6 26 13 6 13 -8 0 -17 -4 -20 -9z"/>
<path d="M4244 2335 c-18 -28 -12 -45 17 -45 23 0 59 34 59 55 0 26 -57 19
-76 -10z"/>
<path d="M4572 1620 c0 -14 2 -19 5 -12 2 6 2 18 0 25 -3 6 -5 1 -5 -13z"/>
<path d="M4165 1600 c-3 -5 -4 -14 0 -19 3 -5 1 -12 -5 -16 -5 -3 -10 1 -10 9
0 9 -4 16 -10 16 -5 0 -10 -9 -10 -20 0 -15 7 -20 27 -20 14 0 24 3 20 6 -3 3
-2 17 3 30 9 24 -2 34 -15 14z"/>
<path d="M4561 1564 c0 -11 3 -14 6 -6 3 7 2 16 -1 19 -3 4 -6 -2 -5 -13z"/>
<path d="M4251 1553 c-1 -16 5 -23 17 -23 10 0 13 3 6 8 -6 4 -14 14 -17 22
-4 10 -6 8 -6 -7z"/>
<path d="M4300 1551 c0 -6 4 -13 10 -16 6 -3 7 1 4 9 -7 18 -14 21 -14 7z"/>
<path d="M4227 1483 c-4 -3 -7 -13 -7 -22 1 -13 3 -13 11 2 11 19 8 33 -4 20z"/>
<path d="M4541 1464 c0 -11 3 -14 6 -6 3 7 2 16 -1 19 -3 4 -6 -2 -5 -13z"/>
<path d="M4358 1445 c-3 -14 -1 -25 3 -25 5 0 9 4 9 9 0 5 3 16 6 25 3 9 2 16
-4 16 -5 0 -12 -11 -14 -25z"/>
<path d="M4290 1445 c0 -8 5 -15 10 -15 6 0 10 7 10 15 0 8 -4 15 -10 15 -5 0
-10 -7 -10 -15z"/>
<path d="M4441 1444 c0 -11 3 -14 6 -6 3 7 2 16 -1 19 -3 4 -6 -2 -5 -13z"/>
<path d="M4120 1392 c0 -24 8 -32 26 -25 22 8 17 43 -6 43 -13 0 -20 -7 -20
-18z"/>
<path d="M4179 1408 c0 -2 -2 -14 -5 -28 -3 -21 -2 -22 7 -7 12 21 31 13 22
-10 -4 -11 -3 -14 5 -9 18 11 14 34 -8 46 -11 6 -20 9 -21 8z"/>
<path d="M4370 1376 c0 -8 4 -17 9 -20 5 -4 7 3 4 14 -6 23 -13 26 -13 6z"/>
<path d="M4330 1356 c0 -31 6 -34 13 -6 3 11 1 23 -4 26 -5 3 -9 -6 -9 -20z"/>
<path d="M4285 1360 c3 -5 8 -10 11 -10 2 0 4 5 4 10 0 6 -5 10 -11 10 -5 0
-7 -4 -4 -10z"/>
<path d="M4361 1334 c0 -11 3 -14 6 -6 3 7 2 16 -1 19 -3 4 -6 -2 -5 -13z"/>
<path d="M4410 1325 c0 -8 4 -15 10 -15 5 0 7 7 4 15 -4 8 -8 15 -10 15 -2 0
-4 -7 -4 -15z"/>
<path d="M4511 1324 c0 -11 3 -14 6 -6 3 7 2 16 -1 19 -3 4 -6 -2 -5 -13z"/>
<path d="M4491 1234 c0 -11 3 -14 6 -6 3 7 2 16 -1 19 -3 4 -6 -2 -5 -13z"/>
<path d="M4482 1180 c0 -14 2 -19 5 -12 2 6 2 18 0 25 -3 6 -5 1 -5 -13z"/>
<path d="M3833 1163 c9 -2 23 -2 30 0 6 3 -1 5 -18 5 -16 0 -22 -2 -12 -5z"/>
<path d="M4147 1163 c-14 -13 -6 -25 8 -13 10 8 15 9 15 2 0 -6 7 -9 15 -6 8
4 12 10 9 15 -6 11 -38 12 -47 2z"/>
<path d="M4286 1123 c-6 -14 -5 -15 5 -6 7 7 10 15 7 18 -3 3 -9 -2 -12 -12z"/>
<path d="M3013 1106 c0 -8 9 -17 19 -19 21 -6 23 4 6 21 -16 16 -25 15 -25 -2z"/>
<path d="M4305 1110 c-3 -5 -1 -10 4 -10 6 0 11 5 11 10 0 6 -2 10 -4 10 -3 0
-8 -4 -11 -10z"/>
<path d="M3115 1080 c3 -5 10 -10 16 -10 5 0 9 5 9 10 0 6 -7 10 -16 10 -8 0
-12 -4 -9 -10z"/>
<path d="M3230 1050 c0 -5 5 -10 10 -10 6 0 10 5 10 10 0 6 -4 10 -10 10 -5 0
-10 -4 -10 -10z"/>
<path d="M3337 1029 c7 -7 15 -10 18 -7 3 3 -2 9 -12 12 -14 6 -15 5 -6 -5z"/>
<path d="M4162 1025 c4 -4 65 -20 135 -35 l128 -26 5 -40 6 -39 6 35 c4 21 1
39 -6 46 -6 6 -60 21 -121 34 -60 12 -121 24 -135 27 -14 3 -22 2 -18 -2z"/>
<path d="M4237 960 c3 -12 -1 -22 -11 -26 -19 -7 -11 -24 12 -24 14 0 14 2 3
9 -11 7 -10 11 4 19 11 6 16 16 12 26 -9 23 -26 20 -20 -4z"/>
<path d="M4340 950 c13 -9 12 -13 -7 -29 -30 -25 -29 -31 5 -31 21 0 24 2 12
10 -13 8 -12 11 4 23 21 16 14 37 -12 37 -15 0 -15 -2 -2 -10z"/>
<path d="M4282 930 c-7 -11 -8 -20 -3 -20 9 0 24 30 18 36 -1 2 -8 -6 -15 -16z"/>
<path d="M2164 3225 c-8 -19 3 -35 24 -35 15 0 15 2 2 11 -11 8 -12 12 -2 16
6 2 10 9 6 14 -8 14 -24 11 -30 -6z"/>
<path d="M2111 3221 c-8 -5 -11 -17 -6 -30 9 -28 25 -27 18 2 -5 22 -5 22 10
2 14 -17 16 -17 17 -4 0 22 -23 40 -39 30z"/>
<path d="M2060 3185 c10 -12 10 -15 -1 -15 -9 0 -10 -3 -3 -10 6 -6 18 -8 27
-4 13 5 14 10 6 25 -5 10 -17 19 -26 19 -13 0 -13 -3 -3 -15z"/>
<path d="M1921 3159 c-15 -34 -1 -62 26 -52 11 4 13 14 9 37 -9 45 -20 49 -35
15z m29 -30 c0 -5 -4 -9 -10 -9 -5 0 -10 7 -10 16 0 8 5 12 10 9 6 -3 10 -10
10 -16z"/>
<path d="M1995 3178 c-28 -15 -28 -14 -20 -37 9 -28 24 -27 18 2 -4 18 -3 19
6 7 9 -13 11 -12 11 5 1 20 1 20 15 1 19 -25 30 -15 15 13 -12 24 -17 25 -45
9z"/>
<path d="M1880 3150 c0 -11 4 -20 9 -20 5 0 7 9 4 20 -3 11 -7 20 -9 20 -2 0
-4 -9 -4 -20z"/>
<path d="M1777 3129 c-24 -14 -22 -56 3 -64 11 -3 24 -3 30 0 14 8 13 32 -2
41 -8 5 -9 0 -6 -14 8 -29 -10 -28 -21 1 -7 18 -5 23 13 27 11 3 16 9 11 12
-6 4 -18 2 -28 -3z"/>
<path d="M1831 3117 c-9 -11 -8 -17 4 -27 19 -16 47 -5 43 17 -4 23 -31 28
-47 10z m29 -13 c0 -8 -4 -12 -10 -9 -5 3 -10 10 -10 16 0 5 5 9 10 9 6 0 10
-7 10 -16z"/>
<path d="M1890 3111 c0 -5 5 -13 10 -16 6 -3 10 -2 10 4 0 5 -4 13 -10 16 -5
3 -10 2 -10 -4z"/>
<path d="M1658 3070 c-17 -10 -14 -45 5 -57 6 -4 8 4 3 23 l-7 29 21 -25 c14
-18 20 -20 20 -9 0 27 -23 49 -42 39z"/>
<path d="M1707 3060 c6 -22 23 -38 23 -21 0 17 -12 41 -20 41 -5 0 -6 -9 -3
-20z"/>
<path d="M1609 3060 c-10 -48 -9 -61 7 -58 24 4 27 20 9 43 -8 11 -15 18 -16
15z"/>
<path d="M1511 2998 c1 -24 3 -35 6 -25 3 13 11 17 24 14 23 -6 24 1 3 31 -23
33 -34 27 -33 -20z"/>
<path d="M1474 2901 c4 -6 13 -11 20 -11 23 0 46 -64 72 -200 15 -83 111 -427
135 -486 6 -16 15 -38 20 -49 4 -11 11 -31 14 -45 16 -62 61 -174 113 -280 65
-133 60 -125 68 -117 3 3 -27 74 -66 158 -83 177 -180 461 -240 704 -23 94
-48 198 -57 232 -8 34 -20 68 -26 76 -15 18 -63 35 -53 18z"/>
<path d="M2280 1735 c0 -17 5 -25 13 -22 6 2 12 12 12 22 0 10 -6 20 -12 23
-8 2 -13 -6 -13 -23z"/>
<path d="M1865 1730 c-3 -5 -1 -10 5 -10 6 0 8 -5 4 -12 -4 -7 -3 -8 4 -4 6 4
9 13 5 21 -6 18 -10 19 -18 5z"/>
<path d="M2210 1731 c1 -17 19 -31 33 -25 26 10 20 30 -8 30 -14 0 -25 -2 -25
-5z"/>
<path d="M2139 1703 c-10 -12 -10 -16 2 -24 8 -5 19 -8 24 -8 6 0 4 3 -2 6
-20 8 -15 23 8 23 11 0 17 -4 14 -10 -3 -5 -2 -10 4 -10 12 0 25 19 17 27 -12
13 -56 10 -67 -4z"/>
<path d="M2095 1690 c-3 -5 -2 -17 3 -26 8 -14 10 -12 14 10 5 26 -5 35 -17
16z"/>
<path d="M2023 1660 c6 -16 15 -30 19 -30 11 0 10 4 -4 35 -16 35 -29 31 -15
-5z"/>
<path d="M2060 1665 c0 -15 4 -24 10 -20 6 3 10 12 10 20 0 8 -4 17 -10 20 -6
4 -10 -5 -10 -20z"/>
<path d="M1976 1671 c-4 -5 -1 -22 5 -38 l12 -28 8 29 c4 16 6 33 3 38 -7 11
-21 10 -28 -1z"/>
<path d="M2284 1527 c4 -14 1 -16 -18 -11 -16 4 -25 1 -29 -10 -7 -18 8 -22
19 -5 4 8 9 8 13 1 4 -6 12 -7 20 -3 11 7 11 13 1 27 -10 17 -11 17 -6 1z"/>
<path d="M2180 1515 c0 -3 9 -15 20 -27 22 -24 27 -13 6 15 -13 16 -26 23 -26
12z"/>
<path d="M2215 1280 c-3 -5 1 -10 10 -10 9 0 13 5 10 10 -3 6 -8 10 -10 10 -2
0 -7 -4 -10 -10z"/>
<path d="M2225 1240 c3 -5 10 -10 16 -10 5 0 9 5 9 10 0 6 -7 10 -16 10 -8 0
-12 -4 -9 -10z"/>
<path d="M2595 1073 c5 -14 3 -15 -5 -7 -12 12 -50 7 -50 -6 0 -4 -6 -8 -12
-7 -51 2 -70 -4 -75 -24 -4 -13 -8 -16 -13 -10 -9 15 -40 3 -40 -15 0 -16 61
-14 82 4 8 6 18 9 21 5 4 -3 7 2 7 13 0 15 2 16 9 5 7 -12 13 -12 24 -3 7 7
18 8 22 4 5 -4 5 1 2 11 -4 9 -2 17 2 17 5 0 11 -6 14 -12 3 -10 9 -9 22 4 17
16 13 38 -7 38 -6 0 -7 -8 -3 -17z"/>
<path d="M2305 1020 c3 -5 8 -10 11 -10 2 0 4 5 4 10 0 6 -5 10 -11 10 -5 0
-7 -4 -4 -10z"/>
<path d="M2374 1009 c-3 -6 -2 -15 3 -20 5 -5 9 -1 9 11 0 23 -2 24 -12 9z"/>
<path d="M2350 996 c0 -8 4 -17 9 -20 5 -4 7 3 4 14 -6 23 -13 26 -13 6z"/>
<path d="M2235 3070 c-17 -7 -15 -9 13 -9 17 -1 32 4 32 9 0 12 -17 12 -45 0z"/>
<path d="M2123 2975 c14 -29 31 -28 35 3 3 18 -2 22 -21 22 -23 0 -24 -2 -14
-25z"/>
<path d="M1345 2711 c3 -5 -4 -16 -15 -24 -21 -14 -21 -14 3 -30 16 -10 28
-12 40 -5 16 8 16 12 2 38 -9 17 -20 30 -26 30 -6 0 -8 -4 -4 -9z m25 -42 c0
-5 -4 -9 -10 -9 -5 0 -10 7 -10 16 0 8 5 12 10 9 6 -3 10 -10 10 -16z"/>
<path d="M1254 2655 c6 -17 -9 -21 -19 -5 -4 6 -10 8 -15 5 -10 -6 20 -65 33
-65 5 0 5 9 2 20 -8 24 10 27 19 4 4 -9 9 -14 13 -11 8 9 -17 67 -29 67 -6 0
-8 -7 -4 -15z"/>
<path d="M1170 2625 c0 -2 9 -19 20 -37 22 -36 27 -25 8 17 -10 21 -28 35 -28
20z"/>
<path d="M1144 2593 c-7 -2 -9 -14 -6 -26 5 -21 4 -21 -17 3 l-21 25 10 -29
c14 -37 4 -47 -11 -12 -13 27 -35 37 -25 11 3 -8 1 -15 -4 -15 -13 0 -13 -37
-1 -45 5 -3 30 6 55 19 25 13 51 26 58 29 9 3 7 10 -7 25 -11 11 -25 18 -31
15z"/>
<path d="M1020 2516 c0 -16 28 -41 37 -33 3 4 1 13 -5 20 -7 8 -9 17 -5 20 3
4 -1 7 -10 7 -9 0 -17 -6 -17 -14z"/>
<path d="M974 2495 c-10 -24 14 -47 37 -34 15 8 17 14 9 29 -13 24 -38 26 -46
5z m36 -16 c0 -5 -4 -9 -10 -9 -5 0 -10 7 -10 16 0 8 5 12 10 9 6 -3 10 -10
10 -16z"/>
<path d="M921 2471 c-20 -15 -22 -21 -12 -39 15 -29 24 -28 15 0 -6 20 -5 21
8 10 15 -12 48 -7 48 8 0 4 -8 14 -18 23 -16 14 -19 14 -41 -2z"/>
<path d="M865 2459 c10 -15 -27 -39 -51 -33 -29 7 -38 -11 -24 -47 14 -32 35
-40 27 -9 -6 24 18 48 27 25 9 -25 27 -17 20 10 -7 29 3 33 22 8 7 -10 15 -15
18 -12 8 8 -26 69 -37 69 -5 0 -5 -5 -2 -11z"/>
<path d="M5671 2361 c-8 -6 -11 -16 -7 -27 6 -17 6 -17 -14 1 -21 19 -29 8 -8
-13 19 -19 45 -14 52 11 10 40 5 46 -23 28z"/>
<path d="M1301 2374 c0 -11 3 -14 6 -6 3 7 2 16 -1 19 -3 4 -6 -2 -5 -13z"/>
<path d="M1255 2360 c-3 -5 -2 -10 4 -10 5 0 13 5 16 10 3 6 2 10 -4 10 -5 0
-13 -4 -16 -10z"/>
<path d="M1268 2313 c7 -3 16 -2 19 1 4 3 -2 6 -13 5 -11 0 -14 -3 -6 -6z"/>
<path d="M1180 2280 c0 -5 5 -10 10 -10 6 0 10 -7 10 -15 0 -8 7 -15 16 -15
14 0 15 -2 3 -17 -12 -14 -12 -16 1 -11 8 2 17 15 18 29 2 13 9 30 14 37 16
18 -7 15 -26 -4 -15 -14 -16 -14 -16 0 0 9 -7 16 -15 16 -8 0 -15 -4 -15 -10z"/>
<path d="M1280 2272 c0 -5 8 -16 18 -25 14 -13 21 -14 30 -5 16 16 15 31 0 25
-7 -2 -21 0 -30 5 -10 5 -18 5 -18 0z"/>
<path d="M1260 2231 c0 -5 7 -12 16 -15 24 -9 28 -7 14 9 -14 17 -30 20 -30 6z"/>
<path d="M1336 2201 c-8 -12 57 -56 97 -65 22 -5 27 -3 27 13 0 14 -10 20 -42
25 -23 4 -50 14 -59 22 -11 10 -19 12 -23 5z"/>
<path d="M1410 2200 c0 -5 5 -10 11 -10 5 0 7 5 4 10 -3 6 -8 10 -11 10 -2 0
-4 -4 -4 -10z"/>
<path d="M1203 2173 c9 -9 19 -14 23 -11 10 10 -6 28 -24 28 -15 0 -15 -1 1
-17z"/>
<path d="M1152 2145 c4 -23 29 -27 36 -6 3 9 0 11 -8 6 -7 -4 -16 -2 -22 6 -7
11 -8 9 -6 -6z"/>
<path d="M4393 2100 c-17 -16 -29 -31 -26 -34 3 -3 -2 -8 -11 -12 -9 -3 -16
-15 -16 -26 0 -27 17 -13 38 30 9 20 28 42 40 48 13 6 20 14 15 17 -4 3 -22
-8 -40 -23z"/>
<path d="M1210 1800 c18 -12 30 -13 30 -2 0 4 -10 9 -22 9 -18 2 -20 0 -8 -7z"/>
<path d="M1255 1800 c3 -5 11 -10 16 -10 6 0 7 5 4 10 -3 6 -11 10 -16 10 -6
0 -7 -4 -4 -10z"/>
<path d="M1210 1725 c-18 -21 -3 -32 16 -13 10 9 12 18 6 22 -5 3 -15 -1 -22
-9z"/>
<path d="M1773 1358 c-31 -15 -29 -30 2 -16 14 6 25 15 25 20 0 9 1 10 -27 -4z"/>
<path d="M1671 1315 c-23 -10 -31 -20 -27 -30 3 -8 1 -15 -3 -15 -5 0 -11 4
-13 10 -2 5 -16 3 -33 -6 -21 -10 -31 -23 -33 -39 -2 -25 11 -34 23 -15 3 5
27 19 54 31 39 19 47 26 43 43 -4 17 -2 19 9 9 7 -7 20 -13 29 -13 12 0 13 2
1 9 -7 5 -10 14 -7 20 9 14 -2 13 -43 -4z m-46 -55 c3 -5 1 -10 -4 -10 -6 0
-11 5 -11 10 0 6 2 10 4 10 3 0 8 -4 11 -10z"/>
<path d="M1502 1228 c-15 -8 -20 -17 -17 -29 3 -9 2 -20 -3 -23 -14 -8 -35 21
-26 35 4 8 3 9 -4 5 -17 -10 -15 -46 2 -52 21 -8 59 15 52 32 -7 17 6 18 22 2
7 -7 12 -10 13 -7 9 50 3 57 -39 37z"/>
<path d="M5030 1206 c0 -7 7 -19 15 -26 8 -7 12 -16 10 -21 -3 -4 7 -6 22 -5
16 2 34 4 41 5 10 1 10 5 0 21 -7 11 -15 15 -18 9 -10 -14 -42 1 -36 17 3 9
-2 14 -14 14 -11 0 -20 -6 -20 -14z"/>
<path d="M5070 925 c-7 -9 -10 -18 -7 -21 3 -3 10 4 17 15 13 25 8 27 -10 6z"/>
<path d="M3830 721 c0 -9 24 -21 43 -21 6 0 2 7 -9 15 -22 17 -34 19 -34 6z"/>
<path d="M3930 670 c33 -23 50 -30 50 -22 0 5 -11 14 -25 20 -32 15 -45 15
-25 2z"/>
<path d="M4925 650 c-3 -5 -1 -10 4 -10 6 0 11 5 11 10 0 6 -2 10 -4 10 -3 0
-8 -4 -11 -10z"/>
<path d="M4175 550 c3 -5 11 -10 16 -10 6 0 7 5 4 10 -3 6 -11 10 -16 10 -6 0
-7 -4 -4 -10z"/>
<path d="M4340 495 c7 -8 19 -15 26 -15 8 0 11 6 8 15 -4 8 -15 15 -26 15 -17
0 -18 -3 -8 -15z"/>
<path d="M4463 490 c-2 -22 28 -34 68 -28 22 3 20 6 -18 26 -51 27 -48 27 -50
2z"/>
<path d="M4677 376 c-16 -13 -16 -14 5 -19 22 -6 41 9 32 25 -7 11 -16 10 -37
-6z"/>
<path d="M4564 365 c-15 -11 -13 -13 16 -24 21 -7 37 -8 43 -2 23 23 -31 47
-59 26z"/>
<path d="M1910 1248 c1 -17 28 -53 35 -46 8 7 -16 58 -27 58 -4 0 -8 -6 -8
-12z"/>
<path d="M1887 1210 c8 -17 19 -28 23 -25 13 8 -10 55 -26 55 -9 0 -9 -7 3
-30z"/>
<path d="M1823 1178 c4 -11 0 -21 -11 -27 -23 -14 -12 -14 27 0 17 6 31 15 31
21 0 5 -5 6 -10 3 -6 -4 -18 -1 -27 7 -15 11 -16 11 -10 -4z"/>
<path d="M1920 1141 c0 -17 18 -21 24 -6 3 9 0 15 -9 15 -8 0 -15 -4 -15 -9z"/>
<path d="M1716 1124 c-11 -8 -16 -14 -10 -14 5 0 2 -5 -6 -10 -8 -5 -10 -10
-5 -10 11 0 49 40 43 45 -2 2 -12 -3 -22 -11z"/>
<path d="M1758 1128 c5 -5 16 -8 23 -6 8 3 3 7 -10 11 -17 4 -21 3 -13 -5z"/>
<path d="M1850 1123 c1 -14 30 -47 36 -41 6 7 -17 48 -28 48 -5 0 -8 -3 -8 -7z"/>
<path d="M1649 1088 c-8 -7 -12 -12 -10 -11 2 2 9 -1 15 -7 8 -6 12 -3 12 11
0 10 -1 19 -1 19 -1 0 -8 -6 -16 -12z"/>
<path d="M1810 1080 c0 -5 7 -10 15 -10 8 0 15 5 15 10 0 6 -7 10 -15 10 -8 0
-15 -4 -15 -10z"/>
<path d="M1606 1055 c4 -8 10 -15 15 -15 4 0 6 7 3 15 -4 8 -10 15 -15 15 -4
0 -6 -7 -3 -15z"/>
<path d="M1580 1048 c0 -9 5 -20 10 -23 13 -8 13 5 0 25 -8 13 -10 13 -10 -2z"/>
<path d="M1728 1048 c15 -19 50 -30 57 -18 3 4 -3 10 -13 13 -9 2 -26 8 -37
13 -17 7 -18 6 -7 -8z"/>
<path d="M1532 1025 c6 -14 15 -25 20 -25 12 0 9 12 -6 33 -19 25 -27 21 -14
-8z"/>
<path d="M1690 1005 c7 -9 15 -13 17 -11 7 7 -7 26 -19 26 -6 0 -6 -6 2 -15z"/>
<path d="M1917 1013 c-3 -5 0 -19 5 -33 7 -20 11 -22 18 -10 7 10 5 18 -5 26
-8 6 -12 14 -8 17 3 4 4 7 0 7 -3 0 -8 -3 -10 -7z"/>
<path d="M1629 984 c-12 -16 -12 -17 5 -11 14 6 17 4 12 -8 -5 -13 -2 -14 17
-4 17 10 19 13 7 17 -8 3 -18 9 -21 14 -3 5 -12 1 -20 -8z"/>
<path d="M1876 985 c-11 -8 -18 -15 -15 -16 2 0 15 -2 29 -5 17 -3 21 -1 11 5
-7 5 -10 14 -7 20 9 14 5 14 -18 -4z"/>
<path d="M1829 972 c16 -30 33 -38 22 -11 -4 13 -14 25 -20 27 -10 3 -10 0 -2
-16z"/>
<path d="M1983 951 c-14 -13 -30 -18 -48 -15 l-26 5 18 -25 c10 -13 22 -22 27
-19 4 3 2 9 -5 14 -10 6 -5 9 14 9 16 0 26 4 22 9 -3 5 0 13 6 17 6 3 15 0 20
-7 5 -8 9 -9 9 -4 0 28 -17 35 -37 16z"/>
<path d="M1575 940 c3 -5 11 -10 16 -10 6 0 7 5 4 10 -3 6 -11 10 -16 10 -6 0
-7 -4 -4 -10z"/>
<path d="M1790 939 c0 -5 5 -7 10 -4 6 3 10 8 10 11 0 2 -4 4 -10 4 -5 0 -10
-5 -10 -11z"/>
<path d="M1742 915 c12 -27 16 -29 37 -16 10 7 8 12 -10 25 -33 23 -40 20 -27
-9z"/>
<path d="M1877 904 c-6 -6 16 -34 26 -34 3 0 3 9 0 20 -5 20 -15 25 -26 14z"/>
<path d="M2006 886 c4 -9 1 -16 -6 -16 -7 0 -10 -6 -7 -14 8 -20 -4 -28 -20
-14 -11 8 -12 7 -7 -6 4 -9 12 -14 18 -11 6 3 19 8 29 11 18 7 24 24 7 24 -5
0 -7 6 -4 14 3 8 1 17 -5 21 -7 3 -8 0 -5 -9z"/>
<path d="M1630 886 c0 -11 39 -50 45 -44 3 2 -6 15 -20 28 -14 13 -25 20 -25
16z"/>
<path d="M1670 886 c0 -2 7 -9 15 -16 13 -11 14 -10 9 4 -5 14 -24 23 -24 12z"/>
<path d="M1844 860 c0 -24 9 -25 27 -3 10 11 10 14 2 9 -7 -4 -13 -2 -13 3 0
6 -4 11 -8 11 -4 0 -8 -9 -8 -20z"/>
<path d="M1784 849 c-8 -14 11 -33 25 -25 11 7 4 36 -9 36 -5 0 -12 -5 -16
-11z"/>
<path d="M1730 819 c0 -5 5 -7 10 -4 6 3 10 8 10 11 0 2 -4 4 -10 4 -5 0 -10
-5 -10 -11z"/>
<path d="M1878 801 c-10 -10 -18 -21 -18 -25 0 -4 7 0 16 8 8 9 19 14 23 12 4
-3 8 1 8 9 0 19 -8 18 -29 -4z"/>
<path d="M1930 806 c7 -7 13 -7 20 0 6 6 3 10 -10 10 -13 0 -16 -4 -10 -10z"/>
<path d="M1705 794 c9 -9 18 -14 21 -11 9 9 -6 27 -22 27 -13 0 -13 -2 1 -16z"/>
<path d="M2060 780 c9 -16 8 -19 -7 -13 -13 5 -15 3 -10 -11 6 -15 3 -17 -12
-13 -14 3 -18 1 -14 -9 7 -18 9 -18 43 3 25 14 27 19 17 40 -5 12 -14 23 -19
23 -5 0 -4 -9 2 -20z"/>
<path d="M1660 783 c0 -15 19 -37 26 -31 3 4 -1 14 -10 23 -9 9 -16 13 -16 8z"/>
<path d="M1799 762 c-24 -16 -29 -42 -8 -42 4 0 6 6 3 14 -7 19 16 32 27 15
11 -18 23 -4 12 15 -8 14 -11 14 -34 -2z"/>
<path d="M1985 740 c3 -5 8 -10 11 -10 2 0 4 5 4 10 0 6 -5 10 -11 10 -5 0 -7
-4 -4 -10z"/>
<path d="M1690 735 c0 -13 25 -55 32 -55 6 0 7 6 4 13 -3 6 -9 20 -12 30 -6
15 -24 25 -24 12z"/>
<path d="M1750 719 c7 -11 14 -19 16 -16 7 7 -7 37 -17 37 -6 0 -5 -9 1 -21z"/>
<path d="M1940 716 c0 -2 7 -9 15 -16 13 -11 14 -10 9 4 -5 14 -24 23 -24 12z"/>
<path d="M1980 706 c7 -7 13 -7 20 0 6 6 3 10 -10 10 -13 0 -16 -4 -10 -10z"/>
<path d="M1857 673 c-12 -12 -7 -22 8 -17 8 4 15 1 15 -7 0 -7 2 -10 5 -7 7 7
-5 38 -14 38 -4 0 -11 -3 -14 -7z"/>
<path d="M2017 656 c-17 -15 -28 -20 -31 -13 -2 7 -5 8 -5 2 -1 -20 16 -36 33
-29 14 5 15 9 4 15 -11 7 -10 11 2 19 10 6 16 6 18 0 6 -17 18 -11 18 10 0 26
-7 25 -39 -4z"/>
<path d="M1826 636 c3 -9 11 -16 16 -16 13 0 5 23 -10 28 -7 2 -10 -2 -6 -12z"/>
<path d="M1748 635 c-7 -7 14 -55 25 -55 10 0 8 11 -6 38 -7 12 -16 20 -19 17z"/>
<path d="M1800 633 c0 -4 5 -15 10 -23 8 -13 10 -13 10 2 0 9 -4 20 -10 23 -5
3 -10 3 -10 -2z"/>
<path d="M1930 609 c0 -5 -5 -7 -12 -3 -8 5 -9 2 -5 -9 7 -19 -8 -31 -25 -20
-18 10 -38 13 -38 4 0 -4 7 -16 15 -27 13 -18 14 -18 8 6 -6 22 -5 23 10 12
19 -16 62 2 51 20 -5 8 -1 9 11 4 15 -5 16 -4 5 9 -15 18 -20 19 -20 4z"/>
<path d="M1810 520 c-8 -5 -10 -10 -5 -10 6 0 17 5 25 10 8 5 11 10 5 10 -5 0
-17 -5 -25 -10z"/>
<path d="M4670 1155 c0 -8 4 -15 10 -15 5 0 7 7 4 15 -4 8 -8 15 -10 15 -2 0
-4 -7 -4 -15z"/>
<path d="M4712 1145 c-11 -12 -10 -15 3 -15 8 0 15 7 15 15 0 18 -2 18 -18 0z"/>
<path d="M4793 1121 c-4 -17 -8 -20 -15 -9 -8 10 -9 10 -6 -1 7 -24 25 -23 31
1 4 12 4 24 1 27 -3 3 -7 -5 -11 -18z"/>
<path d="M4644 1101 c4 -6 2 -11 -4 -11 -6 0 -8 -4 -5 -10 3 -5 13 -10 21 -10
19 0 15 31 -5 38 -8 3 -11 0 -7 -7z"/>
<path d="M4903 1072 c-7 -4 -9 -13 -5 -19 6 -9 11 -6 20 7 13 21 6 26 -15 12z"/>
<path d="M4782 1025 c-11 -12 -10 -15 3 -15 8 0 15 7 15 15 0 18 -2 18 -18 0z"/>
<path d="M5011 994 c0 -11 3 -14 6 -6 3 7 2 16 -1 19 -3 4 -6 -2 -5 -13z"/>
<path d="M4579 854 c-10 -12 -8 -14 12 -12 15 2 23 -2 22 -9 -4 -16 13 -17 23
-1 4 6 2 14 -4 16 -7 2 -10 7 -8 11 9 14 -33 9 -45 -5z"/>
<path d="M4686 804 c-5 -14 -4 -15 9 -4 17 14 19 20 6 20 -5 0 -12 -7 -15 -16z"/>
<path d="M4583 773 c-15 -5 -17 -23 -4 -23 5 0 11 7 15 15 3 8 4 15 3 14 -1 0
-8 -3 -14 -6z"/>
<path d="M4751 771 c-8 -5 -9 -11 -3 -15 5 -3 15 1 22 9 14 16 3 20 -19 6z"/>
<path d="M4788 743 c7 -3 16 -2 19 1 4 3 -2 6 -13 5 -11 0 -14 -3 -6 -6z"/>
<path d="M4785 660 c-3 -5 -1 -10 4 -10 6 0 11 5 11 10 0 6 -2 10 -4 10 -3 0
-8 -4 -11 -10z"/>
<path d="M2070 511 c0 -6 -11 -13 -25 -17 -14 -3 -25 -10 -25 -15 0 -5 -9 -9
-21 -9 -14 0 -19 -5 -16 -14 4 -11 1 -13 -10 -9 -13 5 -15 2 -10 -18 4 -13 7
-27 7 -31 0 -5 9 0 19 10 40 36 51 42 71 42 11 0 23 7 27 16 3 8 12 13 21 9
13 -5 13 -3 0 17 -16 24 -38 35 -38 19z"/>
<path d="M2030 407 c-14 -7 -27 -23 -28 -36 l-4 -23 35 26 c18 14 37 23 40 19
4 -3 7 1 7 10 0 20 -16 21 -50 4z"/>
<path d="M1955 361 c-6 -11 9 -23 19 -14 9 9 7 23 -3 23 -6 0 -12 -4 -16 -9z"/>
</g>
</svg>
